<?xml version="1.0" standalone="no"?>
<!DOCTYPE svg PUBLIC "-//W3C//DTD SVG 1.1//EN" "http://www.w3.org/Graphics/SVG/1.1/DTD/svg11.dtd" >
<svg xmlns="http://www.w3.org/2000/svg">
<metadata></metadata>
<defs>
<font id="trasandina_regularregular" horiz-adv-x="1000" >
<font-face units-per-em="2048" ascent="1638" descent="-410" />
<missing-glyph horiz-adv-x="480" />
<glyph unicode="&#x30;&#x2f;&#x30;" horiz-adv-x="1666" d="M100 924v157q0 135 88 209t218 74t218.5 -74t88.5 -209v-157q0 -135 -88.5 -209t-218.5 -74t-218 74t-88 209zM260 932q0 -70 40 -109.5t106 -39.5t106.5 40t40.5 109v141q0 69 -40.5 109t-106.5 40t-106 -39.5t-40 -109.5v-141zM356 0l784 1354h167l-784 -1354h-167z M953 272v157q0 135 88 209t218 74t218.5 -74t88.5 -209v-157q0 -135 -88.5 -209t-218.5 -74t-218 74t-88 209zM1113 280q0 -70 40 -109.5t106 -39.5t106.5 40t40.5 109v141q0 69 -40.5 109t-106.5 40t-106 -39.5t-40 -109.5v-141z" />
<glyph unicode="&#x31;&#x2f;&#x34;" horiz-adv-x="929" d="M50 610v135h829v-135h-829zM181 47l303 435v2h152v-432h116v-131h-116v-140h-162v140h-293v126zM215 1500l236 74h132v-566h171v-137h-522v137h188v406l-193 -42zM350 47h134v198z" />
<glyph unicode="&#x31;&#x2f;&#x32;" horiz-adv-x="929" d="M50 610v135h829v-135h-829zM195 1500l236 74h132v-566h171v-137h-522v137h188v406l-193 -42zM221 -94q18 12 58.5 39.5t58 40t51 36t49.5 37t40 34.5t35.5 36t24.5 34t18 37t5 36q0 57 -40 84.5t-108 27.5q-64 0 -168 -20l-20 137q108 27 207 27q61 0 113.5 -14.5 t95.5 -44.5t68 -81t25 -118q0 -161 -264 -318h291v-137h-540v127z" />
<glyph unicode="&#x33;&#x2f;&#x34;" horiz-adv-x="929" d="M50 610v135h829v-135h-829zM181 47l303 435v2h152v-432h116v-131h-116v-140h-162v140h-293v126zM225 883l18 138q81 -19 160 -19q141 0 141 78q0 40 -35 61t-84 21h-129v124h130q47 0 76.5 18.5t29.5 57.5q0 40 -33 61.5t-94 21.5q-76 0 -159 -18l-19 130q96 27 185 27 q142 0 217 -55t75 -153q0 -104 -105 -146q54 -18 85.5 -59.5t31.5 -104.5q0 -98 -80 -151.5t-229 -53.5q-94 0 -182 22zM350 47h134v198z" />
<glyph horiz-adv-x="0" />
<glyph horiz-adv-x="682" />
<glyph unicode=" "  horiz-adv-x="480" />
<glyph unicode="&#x09;" horiz-adv-x="480" />
<glyph unicode="&#xa0;" horiz-adv-x="480" />
<glyph unicode="!" horiz-adv-x="410" d="M100 85q0 49 28 77t77 28t77 -28t28 -77t-28 -77t-77 -28t-77 28t-28 77zM106 1354h198l-25 -994h-148z" />
<glyph unicode="&#x22;" horiz-adv-x="694" d="M100 1384h164l-10 -508h-144zM430 1384h164l-10 -508h-144z" />
<glyph unicode="#" horiz-adv-x="1492" d="M150 369l18 141h248l44 328h-241l19 143h242l51 373h164l-51 -373h299l52 373h162l-51 -373h236l-19 -143h-237l-44 -328h236l-19 -141h-237l-50 -369h-165l51 369h-298l-50 -369h-163l50 369h-247zM580 510h297l46 328h-299z" />
<glyph unicode="$" horiz-adv-x="1050" d="M135 147l30 151q161 -52 306 -52q126 0 192 35t66 126q0 74 -50.5 115t-162.5 73l-156 45q-114 33 -168 115t-54 197q0 114 83.5 199t220.5 107l-9 276h178l-8 -271q116 -7 247 -44l-28 -151q-132 39 -281 39q-110 0 -171 -40.5t-61 -115.5q0 -67 37 -105.5t123 -63.5 l153 -44q140 -40 209 -118.5t69 -210.5q0 -141 -85 -221.5t-245 -95.5l8 -272h-178l9 271q-148 11 -274 56z" />
<glyph unicode="&#x26;" horiz-adv-x="1225" d="M90 387q0 218 230 367q-72 91 -101.5 151t-28.5 138q1 109 57.5 184.5t149.5 111t216 35.5q70 0 150 -15t123.5 -28t70.5 -24l-30 -151q-57 21 -143.5 40t-160.5 19q-126 0 -191.5 -40t-65.5 -132q0 -55 25.5 -106t82.5 -125l429 -549q35 62 35 155q0 64 -23.5 126 t-72.5 124t-86.5 101t-102.5 100v117h497v-152h-270q98 -97 155.5 -197t57.5 -215q0 -173 -92 -285l154 -195l-122 -99l-154 196q-113 -58 -274 -58q-228 0 -371.5 110t-143.5 296zM266 395q0 -117 90 -186t249 -69q106 0 175 25l-373 478q-70 -49 -105.5 -104.5 t-35.5 -143.5z" />
<glyph unicode="'" horiz-adv-x="364" d="M100 1384h164l-10 -508h-144z" />
<glyph unicode="(" horiz-adv-x="657" d="M135 677q0 113 20 224.5t50 199.5t75 176t84 148t87.5 121.5t76 91t58.5 61.5l111 -96q-383 -457 -383 -926q0 -468 383 -925l-111 -96q-31 32 -58.5 61.5t-76 90.5t-87.5 121.5t-84 148t-75 175.5t-50 199.5t-20 224.5z" />
<glyph unicode=")" horiz-adv-x="657" d="M-40 -250q383 457 383 926q0 468 -383 925l111 96q31 -32 58.5 -61.5t76 -90.5t87.5 -121.5t84 -148t75 -175.5t50 -199.5t20 -224.5t-20 -224.5t-50 -199.5t-75 -176t-84 -148t-87.5 -121.5t-76 -91t-58.5 -61.5z" />
<glyph unicode="*" horiz-adv-x="748" d="M44 1166l42 137l229 -91l-12 239h142l-12 -239l229 91l42 -137l-241 -74l153 -190l-112 -77l-130 191l-130 -191l-112 77l153 190z" />
<glyph unicode="+" horiz-adv-x="1129" d="M150 600v154h330v348h169v-348h330v-154h-330v-347h-169v347h-330z" />
<glyph unicode="," horiz-adv-x="378" d="M20 -297q34 67 56.5 159t22.5 186v132h169v-103q0 -211 -117 -374h-131z" />
<glyph unicode="-" horiz-adv-x="775" d="M100 427v142h575v-142h-575z" />
<glyph unicode="." horiz-adv-x="410" d="M100 85q0 49 28 77t77 28t77 -28t28 -77t-28 -77t-77 -28t-77 28t-28 77z" />
<glyph unicode="/" horiz-adv-x="950" d="M-40 -325l846 2004h184l-846 -2004h-184z" />
<glyph unicode="0" horiz-adv-x="1174" d="M120 434v486q0 88 24.5 162.5t68 128t102.5 90.5t128 55t144 18t144 -18t128 -55t102.5 -90.5t68 -128t24.5 -162.5v-486q0 -88 -24.5 -162.5t-68 -128t-102.5 -90.5t-128 -55t-144 -18t-144 18t-128 55t-102.5 90.5t-68 128t-24.5 162.5zM298 448q0 -147 75 -228.5 t214 -81.5t214 81.5t75 228.5v458q0 147 -75 228.5t-214 81.5t-214 -81.5t-75 -228.5v-458z" />
<glyph unicode="1" horiz-adv-x="704" d="M60 1228l334 126h140v-1354h-178v1170l-272 -95z" />
<glyph unicode="2" horiz-adv-x="995" d="M105 0v141q295 339 377 443q165 211 200 340q12 45 12 87q0 100 -64.5 149.5t-178.5 49.5q-148 0 -296 -58l-32 149q160 73 335 73q82 0 155 -22t133 -65t95 -115t35 -165q0 -38 -7 -75.5t-15 -69.5t-30.5 -74.5t-37.5 -71t-52.5 -79t-58.5 -78t-73 -89t-78.5 -92 t-93 -105.5t-99.5 -113h569v-160h-795z" />
<glyph unicode="3" horiz-adv-x="942" d="M85 22l24 152q137 -36 281 -36q123 0 205.5 62t82.5 177q0 76 -42 129.5t-104.5 77t-136.5 23.5h-168v155h170q106 0 182.5 61.5t76.5 165.5q0 112 -68.5 169.5t-192.5 57.5q-132 0 -271 -38l-25 142q146 54 309 54q188 0 302.5 -97.5t114.5 -273.5q0 -214 -198 -311 q101 -41 160.5 -128t59.5 -209t-59 -207.5t-158.5 -126.5t-231.5 -41q-170 0 -313 42z" />
<glyph unicode="4" horiz-adv-x="1165" d="M120 316v144l590 894h171v-884h184v-154h-184v-316h-174v316h-587zM317 470h393v595z" />
<glyph unicode="5" d="M100 21l31 155q155 -34 295 -34q301 0 301 242q0 255 -328 255q-90 0 -255 -5l30 720h663v-160h-512l-17 -403q60 2 129 0q219 -6 346 -108.5t127 -296.5q0 -206 -124.5 -306t-345.5 -100q-190 0 -340 41z" />
<glyph unicode="6" horiz-adv-x="1097" d="M120 380v519q0 227 130 351t372 124q144 0 291 -39l-34 -155q-129 33 -257 33q-178 0 -254.5 -84.5t-76.5 -251.5v-141q149 65 283 65q187 0 305 -108t118 -309q0 -184 -114.5 -294t-323.5 -110q-196 0 -317.5 105t-121.5 295zM291 378q0 -113 73 -177.5t195 -64.5 q121 0 191.5 60.5t70.5 166.5q0 278 -269 278q-145 0 -261 -58v-205z" />
<glyph unicode="7" horiz-adv-x="915" d="M40 1194v160h795v-151l-467 -1203h-193l475 1194h-610z" />
<glyph unicode="8" horiz-adv-x="1053" d="M80 314q0 118 66 206t216 164q-128 69 -188.5 147.5t-60.5 188.5q0 158 112.5 256t300.5 98q189 0 301.5 -98t112.5 -256q0 -103 -61 -180.5t-188 -145.5q147 -77 214.5 -167t67.5 -213q0 -151 -122 -242.5t-325 -91.5t-324.5 91.5t-121.5 242.5zM267 332 q0 -96 73.5 -150.5t185.5 -54.5q111 0 185.5 54.5t74.5 150.5q0 82 -63.5 150t-201.5 135q-148 -63 -201 -128.5t-53 -156.5zM288 1017q0 -73 59.5 -132.5t183.5 -121.5q134 57 184 115t50 139q0 100 -68 149.5t-171 49.5q-104 0 -171 -49.5t-67 -149.5z" />
<glyph unicode="9" horiz-adv-x="1097" d="M100 965q0 186 114.5 297.5t323.5 111.5q196 0 317.5 -105t121.5 -295v-539q0 -217 -128.5 -336t-363.5 -119q-103 0 -191.5 16.5t-124.5 32.5l34 155q54 -15 85 -22.5t81.5 -14t105.5 -6.5q178 0 254.5 79.5t76.5 236.5v151q-150 -65 -283 -65q-187 0 -305 109t-118 313 zM276 986q0 -283 269 -283q145 0 261 58v215q0 113 -73 177.5t-195 64.5q-121 0 -191.5 -62t-70.5 -170z" />
<glyph unicode=":" horiz-adv-x="410" d="M100 85q0 49 28 77t77 28t77 -28t28 -77t-28 -77t-77 -28t-77 28t-28 77zM100 911q0 49 28 77t77 28t77 -28t28 -77t-28 -77t-77 -28t-77 28t-28 77z" />
<glyph unicode=";" horiz-adv-x="373" d="M43 -297q34 67 56.5 159t22.5 186v132h169v-103q0 -211 -117 -374h-131zM100 911q0 49 28 77t77 28t77 -28t28 -77t-28 -77t-77 -28t-77 28t-28 77z" />
<glyph unicode="&#x3c;" horiz-adv-x="976" d="M150 677l558 473l118 -111l-432 -362l432 -362l-118 -111z" />
<glyph unicode="=" horiz-adv-x="1009" d="M150 440v154h709v-154h-709zM150 760v154h709v-154h-709z" />
<glyph unicode="&#x3e;" horiz-adv-x="976" d="M150 315l432 362l-432 362l118 111l558 -473l-558 -473z" />
<glyph unicode="?" horiz-adv-x="761" d="M10 1311q153 63 322 63q72 0 137.5 -19.5t120.5 -58t88 -106.5t33 -156q0 -65 -18 -124t-47 -104t-64 -86t-70.5 -77.5t-65 -71t-49 -73.5t-20.5 -78l-2 -60h-146q-2 44 -2 80q0 52 17 100.5t43.5 86t59.5 74t65.5 72t59 72.5t43.5 82.5t17 95.5q0 99 -61.5 143 t-162.5 44q-122 0 -258 -50zM203 85q0 49 27.5 77t77.5 28t77.5 -28t27.5 -77t-27.5 -77t-77.5 -28t-77.5 28t-27.5 77z" />
<glyph unicode="@" horiz-adv-x="2112" d="M150 355q0 222 77.5 414.5t214.5 330t333.5 216t425.5 78.5q152 0 278 -42t212 -113.5t146 -168.5t87.5 -205t27.5 -225q0 -298 -130.5 -479t-339.5 -181q-82 0 -142 43.5t-88 109.5q-168 -133 -356 -133q-64 0 -120 28.5t-95.5 80t-56.5 131t-4 174.5l21 147 q27 194 158 304.5t319 110.5q221 0 361 -97l-84 -597q-4 -65 26 -109t91 -44q106 0 185 130.5t79 364.5q0 132 -34.5 239.5t-105 191t-189 129.5t-276.5 46q-182 0 -338 -65t-266 -178.5t-172 -273.5t-62 -344q0 -278 144.5 -450t387.5 -172q129 0 297 42l25 -140 q-168 -56 -354 -56q-199 0 -355 97.5t-242 271t-86 393.5zM796 427q-17 -125 22 -196.5t142 -71.5q127 0 259 110l72 520q-95 33 -188 33q-126 0 -199.5 -74t-90.5 -198z" />
<glyph unicode="A" horiz-adv-x="1181" d="M35 0l426 1354h259l426 -1354h-189l-102 335h-529l-102 -335h-189zM373 490h436l-219 722z" />
<glyph unicode="B" horiz-adv-x="1124" d="M170 0v1354h441q194 0 292.5 -94t98.5 -266q0 -103 -51 -178t-145 -114q109 -36 178.5 -121.5t69.5 -199.5q0 -186 -118.5 -283.5t-317.5 -97.5h-448zM348 152h246q135 0 209.5 60.5t74.5 179.5q0 118 -78 177t-213 59h-239v-476zM348 770h256q110 0 166 57.5t56 161.5 q0 213 -235 213h-243v-432z" />
<glyph unicode="C" horiz-adv-x="974" d="M120 424v486q0 110 40 200t107 146.5t152 87t178 30.5q96 0 181 -20t124 -37l-30 -159q-160 52 -274 52q-131 0 -216.5 -85.5t-85.5 -228.5v-458q0 -137 88 -215.5t231 -78.5q144 0 285 47l24 -151q-142 -60 -333 -60q-90 0 -174.5 31.5t-150.5 87.5t-106 141t-40 184z " />
<glyph unicode="D" horiz-adv-x="1204" d="M170 0v1354h430q129 0 238.5 -52.5t177.5 -153.5t68 -228v-486q0 -88 -26 -160.5t-70.5 -123t-106.5 -84.5t-132.5 -50t-148.5 -16h-430zM348 152h235q159 0 242 77t83 219v458q0 130 -85.5 213t-239.5 83h-235v-1050z" />
<glyph unicode="E" horiz-adv-x="1018" d="M170 0v1354h767v-160h-588v-431h568v-160h-568v-443h609v-160h-788z" />
<glyph unicode="F" horiz-adv-x="990" d="M170 0v1354h760v-160h-581v-431h561v-160h-561v-603h-179z" />
<glyph unicode="G" horiz-adv-x="1101" d="M120 435v465q0 114 40 205.5t110.5 149.5t164 88.5t202.5 30.5q190 0 347 -68l-35 -152q-60 22 -143 39t-153 17q-171 0 -264 -85t-93 -239v-438q0 -152 86.5 -228t247.5 -76q109 0 198 27v479h168v-590q-73 -36 -178 -58t-213 -22q-133 0 -241.5 51t-176 156t-67.5 248z " />
<glyph unicode="H" horiz-adv-x="1308" d="M170 0v1354h178v-592h612v592h178v-1354h-178v602h-612v-602h-178z" />
<glyph unicode="I" horiz-adv-x="518" d="M170 0v1354h178v-1354h-178z" />
<glyph unicode="J" horiz-adv-x="519" d="M-32 -347q51 34 84 63t62 69t42.5 91t13.5 117v1361h179v-1370q0 -114 -38 -199t-99.5 -140.5t-162.5 -111.5z" />
<glyph unicode="K" horiz-adv-x="1108" d="M170 0v1354h178v-592h207l310 592h195l-368 -685l386 -669h-202l-339 602h-189v-602h-178z" />
<glyph unicode="L" horiz-adv-x="955" d="M170 0v1354h178v-1194h567v-160h-745z" />
<glyph unicode="M" horiz-adv-x="1569" d="M170 0v1354h215l406 -939l408 939h215v-1354h-173v1057l-389 -883h-120l-389 883v-1057h-173z" />
<glyph unicode="N" horiz-adv-x="1317" d="M170 0v1354h188l611 -1043v1043h178v-1354h-188l-611 1043v-1043h-178z" />
<glyph unicode="O" horiz-adv-x="1214" d="M120 434v486q0 110 39.5 198t107 143t154.5 84t186 29t186 -29t154.5 -84t107 -143t39.5 -198v-486q0 -110 -39.5 -198t-107 -143t-154.5 -84t-186 -29t-186 29t-154.5 84t-107 143t-39.5 198zM296 448q0 -147 81.5 -229.5t229.5 -82.5t229.5 82.5t81.5 229.5v458 q0 147 -81.5 229.5t-229.5 82.5t-229.5 -82.5t-81.5 -229.5v-458z" />
<glyph unicode="P" horiz-adv-x="1113" d="M170 0v1354h431q83 0 159.5 -25.5t138 -73t98 -124.5t36.5 -172v-91q0 -96 -36.5 -173.5t-98 -125.5t-138 -73.5t-159.5 -25.5h-253v-470h-178zM348 622h238q125 0 198 66.5t73 193.5v63q0 126 -73 191.5t-198 65.5h-238v-580z" />
<glyph unicode="Q" horiz-adv-x="1214" d="M120 434v486q0 110 39.5 198t107 143t154.5 84t186 29t186 -29t154.5 -84t107 -143t39.5 -198v-486q0 -180 -98.5 -293t-257.5 -147l158 -292l-164 -44l-139 323q-96 2 -180.5 31.5t-150.5 84.5t-104 142t-38 195zM296 448q0 -147 81.5 -229.5t229.5 -82.5t229.5 82.5 t81.5 229.5v458q0 147 -81.5 229.5t-229.5 82.5t-229.5 -82.5t-81.5 -229.5v-458z" />
<glyph unicode="R" horiz-adv-x="1136" d="M170 0v1354h441q83 0 159.5 -25.5t138 -73t98 -124.5t36.5 -172v-71q0 -142 -75.5 -237.5t-197.5 -134.5l276 -516h-197l-254 491h-247v-491h-178zM348 642h248q125 0 198 66.5t73 193.5v43q0 126 -73 191.5t-198 65.5h-248v-560z" />
<glyph unicode="S" horiz-adv-x="995" d="M85 43l28 159q166 -57 330 -57q71 0 122 9t92 31t61.5 63.5t20.5 102.5q0 97 -55.5 149t-181.5 93l-168 55q-122 39 -179.5 133.5t-57.5 227.5q0 154 116.5 259.5t300.5 105.5q177 0 344 -53l-25 -160q-145 49 -303 49q-120 0 -188.5 -53t-68.5 -149q0 -92 38.5 -139 t139.5 -79l168 -55q151 -50 223.5 -139t72.5 -242q0 -184 -115.5 -279t-335.5 -95q-218 0 -379 63z" />
<glyph unicode="T" horiz-adv-x="1015" d="M30 1194v160h955v-160h-388v-1194h-179v1194h-388z" />
<glyph unicode="U" horiz-adv-x="1262" d="M160 406v948h178v-947q0 -122 80.5 -196.5t212.5 -74.5t212.5 74t80.5 197v947h178v-948q0 -195 -131 -310.5t-340 -115.5t-340 115.5t-131 310.5z" />
<glyph unicode="V" horiz-adv-x="1162" d="M35 1354h187l359 -1176l359 1176h187l-418 -1354h-256z" />
<glyph unicode="W" horiz-adv-x="1783" d="M37 1354h188l291 -1158l278 1138h195l277 -1138l292 1158h188l-354 -1354h-246l-255 1071l-254 -1071h-246z" />
<glyph unicode="X" horiz-adv-x="1114" d="M30 0l401 675l-383 679h197l312 -549l312 549h197l-384 -666l402 -688h-202l-325 561l-325 -561h-202z" />
<glyph unicode="Y" horiz-adv-x="1120" d="M45 1354h189l326 -683l326 683h189l-426 -858v-496h-178v496z" />
<glyph unicode="Z" horiz-adv-x="1030" d="M70 0v141l646 1053h-615v160h822v-141l-647 -1053h679v-160h-885z" />
<glyph unicode="[" horiz-adv-x="588" d="M165 -325v2004h388v-142h-214v-1720h214v-142h-388z" />
<glyph unicode="\" horiz-adv-x="950" d="M-40 1679h184l846 -2004h-184z" />
<glyph unicode="]" horiz-adv-x="588" d="M35 -184h214v1720h-214v142h388v-2004h-388v142z" />
<glyph unicode="^" horiz-adv-x="997" d="M100 809l313 635h171l313 -635h-180l-219 473l-218 -473h-180z" />
<glyph unicode="_" horiz-adv-x="1066" d="M100 -75h866v-142h-866v142z" />
<glyph unicode="`" horiz-adv-x="608" d="M100 1375l119 122l289 -318l-81 -84z" />
<glyph unicode="a" horiz-adv-x="982" d="M75 254q0 140 95.5 217t243.5 77h212v107q0 100 -45.5 151t-161.5 51t-269 -44l-19 150q159 53 309 53q195 0 277.5 -93.5t82.5 -291.5v-419q0 -39 18 -60.5t50 -21.5q30 0 64 8l5 -136q-50 -22 -118 -22q-117 0 -165 99q-137 -99 -282 -99q-133 0 -215 70t-82 204z M243 263q0 -69 42.5 -106t104.5 -37q118 0 236 78v223h-201q-87 0 -134.5 -40t-47.5 -118z" />
<glyph unicode="b" horiz-adv-x="1103" d="M170 57v1387h169v-543q71 54 141.5 84.5t158.5 30.5q67 0 128 -27t109.5 -76.5t77.5 -127.5t29 -173v-227q0 -193 -118 -299t-311 -106q-226 0 -384 77zM344 167q109 -33 214 -33q251 0 251 262v203q0 258 -212 258q-135 0 -253 -98v-592z" />
<glyph unicode="c" horiz-adv-x="866" d="M120 384v228q0 189 119 296.5t296 107.5q130 0 241 -36l-25 -154q-1 0 -13.5 3t-26 6.5t-35 7.5t-42.5 7t-46 5t-48 2q-120 0 -183 -70.5t-63 -194.5v-193q0 -125 67 -192.5t189 -67.5q119 0 220 26l16 -151q-115 -34 -241 -34q-121 0 -215 43t-152 136t-58 225z" />
<glyph unicode="d" horiz-adv-x="1103" d="M120 384v227q0 193 118 299t311 106q106 0 215 -37v465h169v-1444h-144l-12 105q-75 -59 -148 -92t-165 -33q-67 0 -128 27t-109.5 76.5t-77.5 127.5t-29 173zM294 397q0 -258 212 -258q134 0 253 97v584q-112 42 -214 42q-251 0 -251 -262v-203z" />
<glyph unicode="e" d="M110 384v228q0 126 54 219t141.5 139t194.5 46t194.5 -46t141.5 -139t54 -219v-175h-606v-51q0 -118 66 -182.5t190 -64.5q152 0 314 44l16 -151q-166 -52 -335 -52q-186 0 -305.5 107.5t-119.5 296.5zM284 567h432v43q0 252 -216 252t-216 -252v-43z" />
<glyph unicode="f" horiz-adv-x="625" d="M30 854v142h155v140q0 149 85 238.5t224 89.5q88 0 171 -20l-19 -148q-78 14 -129 14q-79 0 -118.5 -42.5t-39.5 -145.5v-126h266v-142h-266v-854h-174v854h-155z" />
<glyph unicode="g" horiz-adv-x="956" d="M65 -207q0 77 47 137t119 100q-43 19 -71.5 56.5t-28.5 82.5q0 98 120 185q-77 44 -120.5 115.5t-43.5 156.5v63q0 138 109 232.5t275 94.5q91 0 168 -31q54 90 90 218l164 -47q-55 -137 -152 -231q112 -96 112 -236v-63q0 -133 -109.5 -230t-273.5 -97q-59 0 -110 12 q-74 -54 -74 -104q0 -30 20 -47t57 -17h233q147 0 243.5 -82t96.5 -231q0 -134 -108.5 -216t-271.5 -82h-148q-160 0 -251.5 68.5t-91.5 192.5zM221 -184q0 -71 56.5 -106t145.5 -35h112q53 0 90 5.5t70.5 21.5t50.5 48.5t17 81.5q0 168 -200 168h-206q-56 -27 -96 -75 t-40 -109zM251 636q0 -83 57 -139t162 -56t162 56t57 139v43q0 83 -57 141t-162 58t-162 -58t-57 -141v-43z" />
<glyph unicode="h" horiz-adv-x="1119" d="M170 0v1444h169v-561q182 133 347 133q130 0 201.5 -72t71.5 -206v-738h-174v686q0 80 -37 121t-117 41q-62 0 -138.5 -28.5t-148.5 -79.5v-740h-174z" />
<glyph unicode="i" horiz-adv-x="514" d="M153 1291q0 49 27.5 76.5t76.5 27.5q50 0 77.5 -27.5t27.5 -76.5t-28 -77t-77 -28t-76.5 27.5t-27.5 77.5zM170 0v996h174v-996h-174z" />
<glyph unicode="j" horiz-adv-x="514" d="M-35 -347q51 35 84 63.5t63 68.5t44 91.5t14 116.5v1003h174v-1012q0 -87 -19.5 -155t-60 -121.5t-92 -94t-126.5 -81.5zM153 1291q0 49 27.5 76.5t76.5 27.5q50 0 77.5 -27.5t27.5 -76.5t-28 -77t-77 -28t-76.5 27.5t-27.5 77.5z" />
<glyph unicode="k" horiz-adv-x="998" d="M170 0v1444h174v-864h145l257 416h196l-321 -487l332 -509h-196l-269 438h-144v-438h-174z" />
<glyph unicode="l" horiz-adv-x="514" d="M170 0v1444h174v-1444h-174z" />
<glyph unicode="m" horiz-adv-x="1694" d="M170 0v996h144l14 -121q182 141 348 141q182 0 240 -147q187 147 355 147q125 0 194 -71.5t69 -206.5v-738h-174v686q0 80 -34.5 121t-109.5 41q-60 0 -134 -28t-143 -79v-3v-738h-174v686q0 80 -34.5 121t-109.5 41q-60 0 -134 -28t-143 -79v-741h-174z" />
<glyph unicode="n" horiz-adv-x="1119" d="M170 0v996h144l14 -121q187 141 358 141q130 0 201.5 -72t71.5 -206v-738h-174v686q0 80 -37 121t-117 41q-62 0 -138.5 -28.5t-148.5 -79.5v-740h-174z" />
<glyph unicode="o" horiz-adv-x="1084" d="M120 374v248q0 95 34 171.5t93 124.5t134.5 73t160.5 25t160.5 -25t134.5 -73t93 -124.5t34 -171.5v-248q0 -95 -34 -171.5t-93 -124.5t-134.5 -73t-160.5 -25t-160.5 25t-134.5 73t-93 124.5t-34 171.5zM294 386q0 -118 65 -185t183 -67t183 67t65 185v224 q0 118 -65 185t-183 67t-183 -67t-65 -185v-224z" />
<glyph unicode="p" horiz-adv-x="1103" d="M170 -448v1444h144l12 -105q74 59 147 92t166 33q67 0 128 -27t109.5 -76.5t77.5 -127.5t29 -173v-227q0 -193 -118 -299t-311 -106q-103 0 -215 36v-464h-169zM344 175q113 -41 214 -41q251 0 251 262v203q0 258 -212 258q-135 0 -253 -98v-584z" />
<glyph unicode="q" horiz-adv-x="1103" d="M120 384v227q0 193 118 299t311 106q227 0 384 -77v-1387h-169v543q-71 -55 -141.5 -85t-158.5 -30q-67 0 -128 27t-109.5 76.5t-77.5 127.5t-29 173zM294 397q0 -258 212 -258q134 0 253 97v592q-106 34 -214 34q-251 0 -251 -262v-203z" />
<glyph unicode="r" horiz-adv-x="711" d="M170 0v996h141l16 -157q67 69 162 122t179 55l3 -174q-82 -7 -172 -51t-155 -106v-685h-174z" />
<glyph unicode="s" horiz-adv-x="828" d="M85 30l27 145q125 -46 268 -46q110 0 159.5 26t49.5 97q0 79 -48 116.5t-191 71.5q-72 18 -117.5 39t-80 55t-49.5 84t-15 122q0 120 95.5 198t251.5 78q149 0 276 -36l-22 -146q-123 33 -242 33q-97 0 -148.5 -31t-51.5 -102q0 -69 43 -101t177 -65q159 -39 220 -103.5 t61 -198.5q0 -286 -347 -286q-186 0 -316 50z" />
<glyph unicode="t" horiz-adv-x="670" d="M25 854v142h158l13 278h154l1 -278h249v-142h-246v-585q0 -77 34.5 -106t98.5 -29q51 0 134 15l14 -146q-82 -23 -180 -23q-125 0 -199.5 65t-74.5 198l-1 611h-155z" />
<glyph unicode="u" horiz-adv-x="1099" d="M150 258v738h174v-686q0 -162 149 -162q61 0 136.5 28t145.5 79v741h174v-996h-144l-14 121q-183 -141 -353 -141q-127 0 -197.5 71.5t-70.5 206.5z" />
<glyph unicode="v" horiz-adv-x="968" d="M30 996h184l270 -822l270 822h184l-346 -996h-216z" />
<glyph unicode="w" horiz-adv-x="1501" d="M35 996h183l225 -816l235 796h145l234 -796l226 816h183l-293 -996h-215l-208 697l-207 -697h-214z" />
<glyph unicode="x" horiz-adv-x="946" d="M30 0l329 502l-307 494h195l226 -381l226 381h195l-307 -482l329 -514h-194l-249 407l-249 -407h-194z" />
<glyph unicode="y" d="M30 996h184l280 -827l292 827h184l-366 -996l-170 -448h-178l174 448h-48z" />
<glyph unicode="z" horiz-adv-x="826" d="M75 0v128l490 726h-476v142h667v-134l-493 -720h508v-142h-696z" />
<glyph unicode="{" horiz-adv-x="685" d="M80 602v151h36q74 0 113 55t39 120v452q0 138 75 218.5t217 80.5h95v-152h-96q-55 0 -88.5 -37.5t-33.5 -102.5v-426q0 -129 -38 -194.5t-131 -89.5q92 -22 130.5 -84.5t38.5 -178.5v-427q0 -78 33 -119t89 -41h96v-152h-95q-140 0 -216 77t-76 202v453q0 47 -14.5 89.5 t-50.5 74t-87 31.5h-36z" />
<glyph unicode="|" horiz-adv-x="504" d="M165 -325v2004h174v-2004h-174z" />
<glyph unicode="}" horiz-adv-x="685" d="M30 -174h96q55 0 88.5 37.5t33.5 102.5v426q0 129 38 194.5t131 89.5q-92 22 -130.5 84.5t-38.5 178.5v427q0 78 -33 119t-89 41h-96v152h95q140 0 216 -77t76 -202v-453q0 -47 14.5 -89.5t50.5 -74t87 -31.5h36v-151h-36q-74 0 -113 -55t-39 -120v-452 q0 -138 -75 -218.5t-217 -80.5h-95v152z" />
<glyph unicode="~" horiz-adv-x="967" d="M100 481q35 62 95 107.5t138 45.5q63 0 160 -36.5t141 -36.5q74 0 151 79l82 -80q-35 -62 -95 -107.5t-138 -45.5q-62 0 -159 36.5t-142 36.5q-74 0 -151 -79z" />
<glyph unicode="&#xa1;" horiz-adv-x="410" d="M100 911q0 49 28 77t77 28t77 -28t28 -77t-28 -77t-77 -28t-77 28t-28 77zM106 -358l25 994h148l25 -994h-198z" />
<glyph unicode="&#xa2;" horiz-adv-x="1018" d="M180 482v379q0 146 97 237.5t244 112.5l-8 263h178l-8 -263q107 -11 178 -37l-27 -148q-120 36 -231 36q-107 0 -177 -58.5t-70 -157.5v-350q0 -95 71.5 -149t189.5 -54t240 34l21 -144q-91 -31 -208 -40l8 -263h-178l8 266q-140 23 -234 112.5t-94 223.5z" />
<glyph unicode="&#xa3;" horiz-adv-x="1183" d="M150 -20v154q99 0 145 45t46 149v270h-171v154h171v203q0 103 35 184.5t95 132t135.5 76.5t161.5 26q126 0 265 -37l-23 -157q-120 30 -241 30q-123 0 -187.5 -69t-64.5 -200v-189h396v-154h-396v-284q0 -113 -61 -180h587v-154h-893z" />
<glyph unicode="&#xa4;" horiz-adv-x="1281" d="M100 230l179 208q-61 95 -61 216v48q0 121 59 213l-177 205l115 100l192 -183q103 59 233 59q131 0 234 -59l192 183l115 -100l-178 -206q59 -92 59 -212v-48q0 -122 -61 -215l180 -209l-115 -99l-195 186q-102 -57 -231 -57t-230 56l-195 -185zM392 666 q0 -113 66 -182.5t182 -69.5t182 69.5t66 182.5v24q0 113 -66 182.5t-182 69.5t-182 -69.5t-66 -182.5v-24z" />
<glyph unicode="&#xa5;" horiz-adv-x="1274" d="M120 1354h193l322 -539l326 539h193l-298 -472h205v-144h-849v144h203zM232 470v144h809v-144h-315v-470h-178v470h-316z" />
<glyph unicode="&#xa6;" horiz-adv-x="504" d="M165 -324v766h174v-766h-174zM165 913v766h174v-766h-174z" />
<glyph unicode="&#xa7;" horiz-adv-x="1274" d="M150 1149q0 206 147.5 328t393.5 122q219 0 432 -89l-36 -141q-170 61 -316 74q-78 -71 -78 -177q0 -114 93 -279l182 -324q38 -69 60.5 -112.5t47.5 -104.5t36.5 -119.5t11.5 -120.5q0 -206 -147.5 -328t-393.5 -122q-217 0 -432 90l36 141q158 -61 316 -75 q78 72 78 177q0 114 -93 280l-182 324q-39 69 -61 112t-47 104t-36.5 119.5t-11.5 120.5zM318 1147q0 -85 32 -169t100 -203l218 -377q85 -146 85 -272q0 -127 -88 -212q145 16 218 91.5t73 203.5q0 85 -31.5 168.5t-100.5 202.5l-218 377q-85 146 -85 272q0 128 87 212 q-146 -16 -218 -91.5t-72 -202.5z" />
<glyph unicode="&#xa8;" horiz-adv-x="780" d="M100 1290q0 50 28 77.5t77 27.5t77 -27.5t28 -77.5t-28 -77.5t-77 -27.5t-77 27.5t-28 77.5zM470 1290q0 50 28 77.5t77 27.5t77 -27.5t28 -77.5t-28 -77.5t-77 -27.5t-77 27.5t-28 77.5z" />
<glyph unicode="&#xa9;" horiz-adv-x="1592" d="M100 676q0 189 93 350t253 254.5t348 93.5q142 0 271 -55.5t222.5 -149t149 -222.5t55.5 -271q0 -188 -93.5 -348.5t-254.5 -254t-350 -93.5q-188 0 -348 93.5t-253 254t-93 348.5zM251 676q0 -111 43 -211.5t115.5 -173.5t173.5 -116.5t211 -43.5q111 0 212.5 43.5 t174.5 116.5t116.5 173.5t43.5 211.5t-43.5 212.5t-116.5 174.5t-174.5 116.5t-212.5 43.5t-211.5 -43.5t-173 -116.5t-115.5 -174.5t-43 -212.5zM464 622v110q0 152 100 240t247 88q94 0 169 -27l-19 -126q-7 2 -27 6.5t-55 9.5t-65 5q-96 0 -146 -56.5t-50 -154.5v-84 q0 -99 53.5 -153t150.5 -54q91 0 153 17l12 -124q-77 -25 -169 -25q-156 0 -255 84t-99 244z" />
<glyph unicode="&#xaa;" horiz-adv-x="752" d="M60 842q0 102 71 154.5t180 52.5h146v51q0 59 -29 89.5t-103 30.5q-102 0 -212 -33l-17 137q106 41 244 41q151 0 215.5 -61t64.5 -201v-279q0 -46 46 -46q31 0 52 6l4 -125q-46 -18 -99 -18q-43 0 -81 21.5t-56 53.5q-86 -75 -200 -75q-98 0 -162 51t-64 150zM220 849 q0 -38 25 -56t66 -18q69 0 146 47v106h-132q-105 0 -105 -79z" />
<glyph unicode="&#xab;" horiz-adv-x="943" d="M100 498l259 435l139 -67l-213 -368l213 -368l-139 -67zM485 498l259 435l139 -67l-213 -368l213 -368l-139 -67z" />
<glyph unicode="&#xac;" horiz-adv-x="1109" d="M150 600v154h809v-393h-154v239h-655z" />
<glyph unicode="&#xad;" horiz-adv-x="775" d="M100 427v142h575v-142h-575z" />
<glyph unicode="&#xae;" horiz-adv-x="1592" d="M100 676q0 189 93 350t253 254.5t348 93.5q142 0 271 -55.5t222.5 -149t149 -222.5t55.5 -271q0 -188 -93.5 -348.5t-254.5 -254t-350 -93.5q-188 0 -348 93.5t-253 254t-93 348.5zM251 676q0 -111 43 -211.5t115.5 -173.5t173.5 -116.5t211 -43.5q111 0 212.5 43.5 t174.5 116.5t116.5 173.5t43.5 211.5t-43.5 212.5t-116.5 174.5t-174.5 116.5t-212.5 43.5t-211.5 -43.5t-173 -116.5t-115.5 -174.5t-43 -212.5zM526 304v746h284q115 0 195 -61.5t80 -171.5v-38q0 -77 -44.5 -130.5t-117.5 -77.5l167 -267h-155l-150 247h-117v-247h-142z M668 672h124q71 0 111.5 29.5t40.5 84.5v23q0 57 -40.5 87t-111.5 30h-124v-254z" />
<glyph unicode="&#xaf;" horiz-adv-x="750" d="M100 1215v142h550v-142h-550z" />
<glyph unicode="&#xb0;" horiz-adv-x="773" d="M80 1015v76q0 135 88 209t218 74t218.5 -74t88.5 -209v-76q0 -135 -88.5 -209t-218.5 -74t-218 74t-88 209zM240 1023q0 -70 40 -109.5t106 -39.5t106.5 40t40.5 109v60q0 69 -40.5 109t-106.5 40t-106 -39.5t-40 -109.5v-60z" />
<glyph unicode="&#xb1;" horiz-adv-x="1058" d="M159 780v154h290v308h169v-308h290v-154h-290v-308h-169v308h-290zM200 150v154h669v-154h-669z" />
<glyph unicode="&#xb2;" horiz-adv-x="630" d="M50 651v127q18 12 58.5 39.5t58 40t51 36t49.5 37t40 34.5t35.5 36t24.5 34t18 37t5 36q0 57 -40 84.5t-108 27.5q-64 0 -168 -20l-20 137q108 27 207 27q61 0 113.5 -14.5t95.5 -44.5t68 -81t25 -118q0 -161 -264 -318h291v-137h-540z" />
<glyph unicode="&#xb3;" horiz-adv-x="611" d="M50 663l18 138q81 -19 160 -19q141 0 141 78q0 40 -35 61t-84 21h-129v124h130q47 0 76.5 18.5t29.5 57.5q0 40 -33 61.5t-94 21.5q-76 0 -159 -18l-19 130q96 27 185 27q142 0 217 -55t75 -153q0 -104 -105 -146q54 -18 85.5 -59.5t31.5 -104.5q0 -98 -80 -151.5 t-229 -53.5q-94 0 -182 22z" />
<glyph unicode="&#xb4;" horiz-adv-x="608" d="M100 1179l289 318l119 -122l-327 -280z" />
<glyph unicode="&#xb5;" horiz-adv-x="1109" d="M-45 -347q51 35 84 63.5t63 68.5t44 91.5t14 116.5v1003h174v-686q0 -162 149 -162q61 0 136.5 28t145.5 79v741h174v-996h-144l-14 119q-170 -139 -323 -139q-70 0 -124 32v-28q0 -87 -19.5 -155t-60 -121.5t-92 -94t-126.5 -81.5z" />
<glyph unicode="&#xb6;" horiz-adv-x="1132" d="M90 835v75q0 202 130.5 323t333.5 121h80v-963h-80q-203 0 -333.5 121t-130.5 323zM581 -268q51 34 84 63t62 69t42.5 91t13.5 117v1282h179v-1291q0 -114 -38 -199t-99.5 -140.5t-162.5 -111.5z" />
<glyph unicode="&#xb7;" horiz-adv-x="410" d="M100 498q0 50 28 77.5t77 27.5t77 -27.5t28 -77.5t-28 -77.5t-77 -27.5t-77 27.5t-28 77.5z" />
<glyph unicode="&#xb8;" horiz-adv-x="590" d="M100 -455l19 124q36 -11 91 -11q125 0 125 75q0 35 -29.5 53.5t-80.5 18.5h-59l52 215h110l-18 -132q83 -8 131.5 -52t48.5 -123q0 -88 -78 -134.5t-184 -46.5q-76 0 -128 13z" />
<glyph unicode="&#xb9;" horiz-adv-x="599" d="M40 1280l236 74h132v-566h171v-137h-522v137h188v406l-193 -42z" />
<glyph unicode="&#xba;" horiz-adv-x="813" d="M80 924v157q0 90 46 156t118.5 96.5t161.5 30.5t161.5 -29.5t119 -93t46.5 -150.5v-157q0 -139 -94.5 -216t-232.5 -77q-89 0 -161.5 30.5t-118.5 96.5t-46 156zM240 932q0 -70 45.5 -109.5t120.5 -39.5t121 42.5t46 116.5v141q0 65 -46 102t-121 37t-120.5 -39.5 t-45.5 -109.5v-141z" />
<glyph unicode="&#xbb;" horiz-adv-x="943" d="M60 130l213 368l-213 368l139 67l259 -435l-259 -435zM445 130l213 368l-213 368l139 67l259 -435l-259 -435z" />
<glyph unicode="&#xbf;" horiz-adv-x="761" d="M50 -38q0 65 18 124t47 104t64 86t70.5 77.5t65 71t49 73.5t20.5 78l2 60h146q2 -44 2 -80q0 -71 -31.5 -135t-76 -113t-89.5 -97t-76.5 -109.5t-31.5 -128.5q0 -99 61.5 -143t162.5 -44q122 0 258 50l40 -151q-153 -63 -322 -63q-72 0 -137.5 19.5t-120.5 58t-88 106.5 t-33 156zM348 911q0 49 28 77t77 28t77 -28t28 -77t-28 -77t-77 -28t-77 28t-28 77z" />
<glyph unicode="&#xc0;" horiz-adv-x="1181" d="M35 0l426 1354h259l426 -1354h-189l-102 335h-529l-102 -335h-189zM306 1733l119 122l289 -318l-81 -84zM373 490h436l-219 722z" />
<glyph unicode="&#xc1;" horiz-adv-x="1181" d="M35 0l426 1354h259l426 -1354h-189l-102 335h-529l-102 -335h-189zM373 490h436l-219 722zM436 1537l289 318l119 -122l-327 -280z" />
<glyph unicode="&#xc2;" horiz-adv-x="1181" d="M35 0l426 1354h259l426 -1354h-189l-102 335h-529l-102 -335h-189zM296 1497l224 320h140l224 -320l-161 -20l-133 207l-133 -207zM373 490h436l-219 722z" />
<glyph unicode="&#xc3;" horiz-adv-x="1181" d="M35 0l426 1354h259l426 -1354h-189l-102 335h-529l-102 -335h-189zM272 1596q29 62 82 107.5t121 45.5q41 0 118 -31.5t113 -31.5q57 0 111 69l92 -65q-29 -61 -82 -107t-121 -46q-41 0 -118 31.5t-113 31.5q-57 0 -111 -69zM373 490h436l-219 722z" />
<glyph unicode="&#xc4;" horiz-adv-x="1181" d="M35 0l426 1354h259l426 -1354h-189l-102 335h-529l-102 -335h-189zM300 1648q0 50 28 77.5t77 27.5t77 -27.5t28 -77.5t-28 -77.5t-77 -27.5t-77 27.5t-28 77.5zM373 490h436l-219 722zM670 1648q0 50 28 77.5t77 27.5t77 -27.5t28 -77.5t-28 -77.5t-77 -27.5t-77 27.5 t-28 77.5z" />
<glyph unicode="&#xc5;" horiz-adv-x="1181" d="M35 0l426 1354h259l426 -1354h-189l-102 335h-529l-102 -335h-189zM359 1667q0 95 65.5 157.5t165.5 62.5t166 -62t66 -156t-66 -156.5t-166 -62.5t-165.5 61.5t-65.5 155.5zM373 490h436l-219 722zM485 1670q0 -43 30 -71.5t75 -28.5q46 0 76 27.5t30 68.5q0 44 -30 73 t-76 29q-45 0 -75 -28t-30 -70z" />
<glyph unicode="&#xc6;" horiz-adv-x="1615" d="M35 0l630 1354h869v-160h-617l83 -431h514v-160h-483l86 -443h438v-160h-584l-62 325h-537l-148 -325h-189zM443 480h436l-128 675z" />
<glyph unicode="&#xc7;" horiz-adv-x="974" d="M120 424v486q0 110 40 200t107 146.5t152 87t178 30.5q96 0 181 -19.5t124 -37.5l-30 -159q-160 52 -274 52q-131 0 -216.5 -85.5t-85.5 -228.5v-458q0 -137 88 -215.5t231 -78.5q144 0 285 47l24 -151q-134 -57 -320 -60l-12 -92q83 -8 131.5 -52t48.5 -123 q0 -88 -78 -134.5t-184 -46.5q-76 0 -128 13l19 124q36 -11 91 -11q125 0 125 75q0 35 -29.5 53.5t-80.5 18.5h-59l44 185q-158 31 -265 147.5t-107 286.5z" />
<glyph unicode="&#xc8;" horiz-adv-x="1018" d="M170 0v1354h767v-160h-588v-431h568v-160h-568v-443h609v-160h-788zM305 1733l119 122l289 -318l-81 -84z" />
<glyph unicode="&#xc9;" horiz-adv-x="1018" d="M170 0v1354h767v-160h-588v-431h568v-160h-568v-443h609v-160h-788zM425 1537l289 318l119 -122l-327 -280z" />
<glyph unicode="&#xca;" horiz-adv-x="1018" d="M170 0v1354h767v-160h-588v-431h568v-160h-568v-443h609v-160h-788zM255 1497l224 320h140l224 -320l-161 -20l-133 207l-133 -207z" />
<glyph unicode="&#xcb;" horiz-adv-x="1018" d="M170 0v1354h767v-160h-588v-431h568v-160h-568v-443h609v-160h-788zM267 1648q0 50 27.5 77.5t77.5 27.5t77.5 -27.5t27.5 -77.5t-27.5 -77.5t-77.5 -27.5t-77.5 27.5t-27.5 77.5zM637 1648q0 50 27.5 77.5t77.5 27.5t77.5 -27.5t27.5 -77.5t-27.5 -77.5t-77.5 -27.5 t-77.5 27.5t-27.5 77.5z" />
<glyph unicode="&#xcc;" horiz-adv-x="518" d="M-15 1733l119 122l289 -318l-81 -84zM170 0v1354h178v-1354h-178z" />
<glyph unicode="&#xcd;" horiz-adv-x="518" d="M125 1537l289 318l119 -122l-327 -280zM170 0v1354h178v-1354h-178z" />
<glyph unicode="&#xce;" horiz-adv-x="518" d="M-35 1497l224 320h140l224 -320l-161 -20l-133 207l-133 -207zM170 0v1354h178v-1354h-178z" />
<glyph unicode="&#xcf;" horiz-adv-x="518" d="M-21 1648q0 50 27.5 77.5t77.5 27.5t77.5 -27.5t27.5 -77.5t-27.5 -77.5t-77.5 -27.5t-77.5 27.5t-27.5 77.5zM170 0v1354h178v-1354h-178zM329 1648q0 50 27.5 77.5t77.5 27.5t77.5 -27.5t27.5 -77.5t-27.5 -77.5t-77.5 -27.5t-77.5 27.5t-27.5 77.5z" />
<glyph unicode="&#xd0;" horiz-adv-x="1224" d="M50 606v142h140v606h430q129 0 238.5 -52.5t177.5 -153.5t68 -228v-486q0 -88 -26 -160.5t-70.5 -123t-106.5 -84.5t-132.5 -50t-148.5 -16h-430v606h-140zM368 152h235q159 0 242 77t83 219v458q0 130 -85.5 213t-239.5 83h-235v-454h307v-142h-307v-454z" />
<glyph unicode="&#xd1;" horiz-adv-x="1317" d="M170 0v1354h188l611 -1043v1043h178v-1354h-188l-611 1043v-1043h-178zM340 1596q29 62 82 107.5t121 45.5q41 0 118 -31.5t113 -31.5q57 0 111 69l92 -65q-29 -61 -82 -107t-121 -46q-41 0 -118 31.5t-113 31.5q-57 0 -111 -69z" />
<glyph unicode="&#xd2;" horiz-adv-x="1214" d="M120 434v486q0 110 39.5 198t107 143t154.5 84t186 29t186 -29t154.5 -84t107 -143t39.5 -198v-486q0 -110 -39.5 -198t-107 -143t-154.5 -84t-186 -29t-186 29t-154.5 84t-107 143t-39.5 198zM296 448q0 -147 81.5 -229.5t229.5 -82.5t229.5 82.5t81.5 229.5v458 q0 147 -81.5 229.5t-229.5 82.5t-229.5 -82.5t-81.5 -229.5v-458zM363 1733l119 122l289 -318l-81 -84z" />
<glyph unicode="&#xd3;" horiz-adv-x="1214" d="M120 434v486q0 110 39.5 198t107 143t154.5 84t186 29t186 -29t154.5 -84t107 -143t39.5 -198v-486q0 -110 -39.5 -198t-107 -143t-154.5 -84t-186 -29t-186 29t-154.5 84t-107 143t-39.5 198zM296 448q0 -147 81.5 -229.5t229.5 -82.5t229.5 82.5t81.5 229.5v458 q0 147 -81.5 229.5t-229.5 82.5t-229.5 -82.5t-81.5 -229.5v-458zM463 1537l289 318l119 -122l-327 -280z" />
<glyph unicode="&#xd4;" horiz-adv-x="1214" d="M120 434v486q0 110 39.5 198t107 143t154.5 84t186 29t186 -29t154.5 -84t107 -143t39.5 -198v-486q0 -110 -39.5 -198t-107 -143t-154.5 -84t-186 -29t-186 29t-154.5 84t-107 143t-39.5 198zM296 448q0 -147 81.5 -229.5t229.5 -82.5t229.5 82.5t81.5 229.5v458 q0 147 -81.5 229.5t-229.5 82.5t-229.5 -82.5t-81.5 -229.5v-458zM313 1497l224 320h140l224 -320l-161 -20l-133 207l-133 -207z" />
<glyph unicode="&#xd5;" horiz-adv-x="1214" d="M120 434v486q0 110 39.5 198t107 143t154.5 84t186 29t186 -29t154.5 -84t107 -143t39.5 -198v-486q0 -110 -39.5 -198t-107 -143t-154.5 -84t-186 -29t-186 29t-154.5 84t-107 143t-39.5 198zM288 1596q29 62 82 107.5t121 45.5q41 0 118 -31.5t113 -31.5q57 0 111 69 l92 -65q-29 -61 -82 -107t-121 -46q-41 0 -118 31.5t-113 31.5q-57 0 -111 -69zM296 448q0 -147 81.5 -229.5t229.5 -82.5t229.5 82.5t81.5 229.5v458q0 147 -81.5 229.5t-229.5 82.5t-229.5 -82.5t-81.5 -229.5v-458z" />
<glyph unicode="&#xd6;" horiz-adv-x="1214" d="M120 434v486q0 110 39.5 198t107 143t154.5 84t186 29t186 -29t154.5 -84t107 -143t39.5 -198v-486q0 -110 -39.5 -198t-107 -143t-154.5 -84t-186 -29t-186 29t-154.5 84t-107 143t-39.5 198zM296 448q0 -147 81.5 -229.5t229.5 -82.5t229.5 82.5t81.5 229.5v458 q0 147 -81.5 229.5t-229.5 82.5t-229.5 -82.5t-81.5 -229.5v-458zM317 1648q0 50 27.5 77.5t77.5 27.5t77.5 -27.5t27.5 -77.5t-27.5 -77.5t-77.5 -27.5t-77.5 27.5t-27.5 77.5zM687 1648q0 50 27.5 77.5t77.5 27.5t77.5 -27.5t27.5 -77.5t-27.5 -77.5t-77.5 -27.5 t-77.5 27.5t-27.5 77.5z" />
<glyph unicode="&#xd7;" horiz-adv-x="1072" d="M150 406l275 276l-263 264l104 104l264 -263l277 276l115 -115l-277 -277l264 -263l-105 -105l-263 264l-276 -276z" />
<glyph unicode="&#xd8;" horiz-adv-x="1214" d="M120 434v486q0 110 39.5 198t107 143t154.5 84t186 29q108 0 207 -37l108 252h153l-138 -321q157 -124 157 -348v-486q0 -110 -39.5 -198t-107 -143t-154.5 -84t-186 -29q-108 0 -207 36l-108 -251h-153l137 320q-156 125 -156 349zM296 448q0 -117 52 -195l403 939 q-63 26 -144 26q-148 0 -229.5 -82.5t-81.5 -229.5v-458zM462 162q63 -26 145 -26q148 0 229.5 82.5t81.5 229.5v458q0 118 -53 194z" />
<glyph unicode="&#xd9;" horiz-adv-x="1262" d="M160 406v948h178v-947q0 -122 80.5 -196.5t212.5 -74.5t212.5 74t80.5 197v947h178v-948q0 -195 -131 -310.5t-340 -115.5t-340 115.5t-131 310.5zM327 1733l119 122l289 -318l-81 -84z" />
<glyph unicode="&#xda;" horiz-adv-x="1262" d="M160 406v948h178v-947q0 -122 80.5 -196.5t212.5 -74.5t212.5 74t80.5 197v947h178v-948q0 -195 -131 -310.5t-340 -115.5t-340 115.5t-131 310.5zM507 1537l289 318l119 -122l-327 -280z" />
<glyph unicode="&#xdb;" horiz-adv-x="1262" d="M160 406v948h178v-947q0 -122 80.5 -196.5t212.5 -74.5t212.5 74t80.5 197v947h178v-948q0 -195 -131 -310.5t-340 -115.5t-340 115.5t-131 310.5zM337 1497l224 320h140l224 -320l-161 -20l-133 207l-133 -207z" />
<glyph unicode="&#xdc;" horiz-adv-x="1262" d="M160 406v948h178v-947q0 -122 80.5 -196.5t212.5 -74.5t212.5 74t80.5 197v947h178v-948q0 -195 -131 -310.5t-340 -115.5t-340 115.5t-131 310.5zM341 1648q0 50 27.5 77.5t77.5 27.5t77.5 -27.5t27.5 -77.5t-27.5 -77.5t-77.5 -27.5t-77.5 27.5t-27.5 77.5zM711 1648 q0 50 27.5 77.5t77.5 27.5t77.5 -27.5t27.5 -77.5t-27.5 -77.5t-77.5 -27.5t-77.5 27.5t-27.5 77.5z" />
<glyph unicode="&#xdd;" horiz-adv-x="1120" d="M45 1354h189l326 -683l326 683h189l-426 -858v-496h-178v496zM456 1537l289 318l119 -122l-327 -280z" />
<glyph unicode="&#xde;" horiz-adv-x="1113" d="M170 0v1354h178v-235h253q83 0 159.5 -25.5t138 -73t98 -124.5t36.5 -172v-91q0 -96 -36.5 -173.5t-98 -125.5t-138 -73.5t-159.5 -25.5h-253v-235h-178zM348 387h238q125 0 198 66.5t73 193.5v63q0 126 -73 191.5t-198 65.5h-238v-580z" />
<glyph unicode="&#xdf;" horiz-adv-x="1154" d="M160 0v1125q0 146 104.5 242.5t249.5 96.5q193 0 307 -86t114 -222q0 -86 -31.5 -142.5t-114.5 -142.5q-73 -74 -102 -112.5t-29 -71.5q0 -50 32.5 -73.5t142.5 -60.5q149 -46 210 -112t61 -179q0 -138 -89.5 -210t-257.5 -72q-176 0 -296 50l27 145q115 -46 248 -46 q209 0 209 124q0 64 -49.5 98.5t-179.5 73.5q-116 38 -171.5 95t-55.5 152q0 32 8.5 62.5t17 49.5t35.5 52.5t38.5 46t51.5 55.5q66 72 98.5 118.5t32.5 85.5q0 72 -68.5 120t-175.5 48q-88 0 -140.5 -53t-52.5 -151v-1106h-174z" />
<glyph unicode="&#xe0;" horiz-adv-x="982" d="M75 254q0 140 95.5 217t243.5 77h212v107q0 100 -45.5 151t-161.5 51t-269 -44l-19 150q159 53 309 53q195 0 277.5 -93.5t82.5 -291.5v-419q0 -39 18 -60.5t50 -21.5q30 0 64 8l5 -136q-50 -22 -118 -22q-117 0 -165 99q-137 -99 -282 -99q-133 0 -215 70t-82 204z M207 1375l119 122l289 -318l-81 -84zM243 263q0 -69 42.5 -106t104.5 -37q118 0 236 78v223h-201q-87 0 -134.5 -40t-47.5 -118z" />
<glyph unicode="&#xe1;" horiz-adv-x="982" d="M75 254q0 140 95.5 217t243.5 77h212v107q0 100 -45.5 151t-161.5 51t-269 -44l-19 150q159 53 309 53q195 0 277.5 -93.5t82.5 -291.5v-419q0 -39 18 -60.5t50 -21.5q30 0 64 8l5 -136q-50 -22 -118 -22q-117 0 -165 99q-137 -99 -282 -99q-133 0 -215 70t-82 204z M243 263q0 -69 42.5 -106t104.5 -37q118 0 236 78v223h-201q-87 0 -134.5 -40t-47.5 -118zM296 1179l289 318l119 -122l-327 -280z" />
<glyph unicode="&#xe2;" horiz-adv-x="982" d="M75 254q0 140 95.5 217t243.5 77h212v107q0 100 -45.5 151t-161.5 51t-269 -44l-19 150q159 53 309 53q195 0 277.5 -93.5t82.5 -291.5v-419q0 -39 18 -60.5t50 -21.5q30 0 64 8l5 -136q-50 -22 -118 -22q-117 0 -165 99q-137 -99 -282 -99q-133 0 -215 70t-82 204z M157 1139l224 320h140l224 -320l-161 -20l-133 207l-133 -207zM243 263q0 -69 42.5 -106t104.5 -37q118 0 236 78v223h-201q-87 0 -134.5 -40t-47.5 -118z" />
<glyph unicode="&#xe3;" horiz-adv-x="982" d="M75 254q0 140 95.5 217t243.5 77h212v107q0 100 -45.5 151t-161.5 51t-269 -44l-19 150q159 53 309 53q195 0 277.5 -93.5t82.5 -291.5v-419q0 -39 18 -60.5t50 -21.5q30 0 64 8l5 -136q-50 -22 -118 -22q-117 0 -165 99q-137 -99 -282 -99q-133 0 -215 70t-82 204z M112 1238q29 62 82 107.5t121 45.5q41 0 118 -31.5t113 -31.5q57 0 111 69l92 -65q-29 -61 -82 -107t-121 -46q-41 0 -118 31.5t-113 31.5q-57 0 -111 -69zM243 263q0 -69 42.5 -106t104.5 -37q118 0 236 78v223h-201q-87 0 -134.5 -40t-47.5 -118z" />
<glyph unicode="&#xe4;" horiz-adv-x="982" d="M75 254q0 140 95.5 217t243.5 77h212v107q0 100 -45.5 151t-161.5 51t-269 -44l-19 150q159 53 309 53q195 0 277.5 -93.5t82.5 -291.5v-419q0 -39 18 -60.5t50 -21.5q30 0 64 8l5 -136q-50 -22 -118 -22q-117 0 -165 99q-137 -99 -282 -99q-133 0 -215 70t-82 204z M151 1290q0 50 27.5 77.5t77.5 27.5t77.5 -27.5t27.5 -77.5t-27.5 -77.5t-77.5 -27.5t-77.5 27.5t-27.5 77.5zM243 263q0 -69 42.5 -106t104.5 -37q118 0 236 78v223h-201q-87 0 -134.5 -40t-47.5 -118zM521 1290q0 50 27.5 77.5t77.5 27.5t77.5 -27.5t27.5 -77.5 t-27.5 -77.5t-77.5 -27.5t-77.5 27.5t-27.5 77.5z" />
<glyph unicode="&#xe5;" horiz-adv-x="982" d="M75 254q0 140 95.5 217t243.5 77h212v107q0 100 -45.5 151t-161.5 51t-269 -44l-19 150q159 53 309 53q195 0 277.5 -93.5t82.5 -291.5v-419q0 -39 18 -60.5t50 -21.5q30 0 64 8l5 -136q-50 -22 -118 -22q-117 0 -165 99q-137 -99 -282 -99q-133 0 -215 70t-82 204z M209 1309q0 95 65.5 157.5t165.5 62.5t166 -62t66 -156t-66 -156.5t-166 -62.5t-165.5 61.5t-65.5 155.5zM243 263q0 -69 42.5 -106t104.5 -37q118 0 236 78v223h-201q-87 0 -134.5 -40t-47.5 -118zM335 1312q0 -43 30 -71.5t75 -28.5q46 0 76 27.5t30 68.5q0 44 -30 73 t-76 29q-45 0 -75 -28t-30 -70z" />
<glyph unicode="&#xe6;" horiz-adv-x="1516" d="M75 257q0 140 95.5 218t243.5 78h212v102q0 100 -45.5 151t-161.5 51t-269 -44l-19 150q159 53 309 53q210 0 287 -120q109 120 289 120q107 0 194.5 -46t141.5 -139t54 -219v-185h-606v-41q0 -118 66 -182.5t190 -64.5q152 0 314 44l16 -151q-166 -52 -335 -52 q-106 0 -194.5 37t-145.5 106q-60 -56 -152.5 -99.5t-186.5 -43.5q-132 0 -214.5 71.5t-82.5 205.5zM243 266q0 -69 42.5 -107.5t104.5 -38.5q129 0 264 101q-28 73 -28 163v42h-201q-87 0 -134.5 -41t-47.5 -119zM800 557h432v53q0 252 -216 252t-216 -252v-53z" />
<glyph unicode="&#xe7;" horiz-adv-x="866" d="M120 384v228q0 189 119 296.5t296 107.5q130 0 241 -36l-25 -154q-1 0 -13.5 3t-26 6.5t-35 7.5t-42.5 7t-46 5t-48 2q-120 0 -183 -70.5t-63 -194.5v-193q0 -125 67 -192.5t189 -67.5q119 0 220 26l16 -151q-115 -34 -241 -34q-17 0 -25 1l-12 -93q83 -8 131.5 -52 t48.5 -123q0 -88 -78 -134.5t-184 -46.5q-76 0 -128 13l19 124q36 -11 91 -11q125 0 125 75q0 35 -29.5 53.5t-80.5 18.5h-59l46 191q-133 33 -211.5 131.5t-78.5 256.5z" />
<glyph unicode="&#xe8;" d="M110 384v228q0 126 54 219t141.5 139t194.5 46t194.5 -46t141.5 -139t54 -219v-175h-606v-51q0 -118 66 -182.5t190 -64.5q152 0 314 44l16 -151q-166 -52 -335 -52q-186 0 -305.5 107.5t-119.5 296.5zM236 1375l119 122l289 -318l-81 -84zM284 567h432v43 q0 252 -216 252t-216 -252v-43z" />
<glyph unicode="&#xe9;" d="M110 384v228q0 126 54 219t141.5 139t194.5 46t194.5 -46t141.5 -139t54 -219v-175h-606v-51q0 -118 66 -182.5t190 -64.5q152 0 314 44l16 -151q-166 -52 -335 -52q-186 0 -305.5 107.5t-119.5 296.5zM284 567h432v43q0 252 -216 252t-216 -252v-43zM343 1179l289 318 l119 -122l-327 -280z" />
<glyph unicode="&#xea;" d="M110 384v228q0 126 54 219t141.5 139t194.5 46t194.5 -46t141.5 -139t54 -219v-175h-606v-51q0 -118 66 -182.5t190 -64.5q152 0 314 44l16 -151q-166 -52 -335 -52q-186 0 -305.5 107.5t-119.5 296.5zM206 1139l224 320h140l224 -320l-161 -20l-133 207l-133 -207z M284 567h432v43q0 252 -216 252t-216 -252v-43z" />
<glyph unicode="&#xeb;" d="M110 384v228q0 126 54 219t141.5 139t194.5 46t194.5 -46t141.5 -139t54 -219v-175h-606v-51q0 -118 66 -182.5t190 -64.5q152 0 314 44l16 -151q-166 -52 -335 -52q-186 0 -305.5 107.5t-119.5 296.5zM210 1290q0 50 28 77.5t77 27.5t77 -27.5t28 -77.5t-28 -77.5 t-77 -27.5t-77 27.5t-28 77.5zM284 567h432v43q0 252 -216 252t-216 -252v-43zM580 1290q0 50 28 77.5t77 27.5t77 -27.5t28 -77.5t-28 -77.5t-77 -27.5t-77 27.5t-28 77.5z" />
<glyph unicode="&#xec;" horiz-adv-x="474" d="M-37 1375l119 122l289 -318l-81 -84zM150 0v996h174v-996h-174z" />
<glyph unicode="&#xed;" horiz-adv-x="514" d="M121 1179l289 318l119 -122l-327 -280zM170 0v996h174v-996h-174z" />
<glyph unicode="&#xee;" horiz-adv-x="474" d="M-57 1139l224 320h140l224 -320l-161 -20l-133 207l-133 -207zM150 0v996h174v-996h-174z" />
<glyph unicode="&#xef;" horiz-adv-x="474" d="M-43 1290q0 50 27.5 77.5t77.5 27.5t77.5 -27.5t27.5 -77.5t-27.5 -77.5t-77.5 -27.5t-77.5 27.5t-27.5 77.5zM150 0v996h174v-996h-174zM307 1290q0 50 27.5 77.5t77.5 27.5t77.5 -27.5t27.5 -77.5t-27.5 -77.5t-77.5 -27.5t-77.5 27.5t-27.5 77.5z" />
<glyph unicode="&#xf0;" horiz-adv-x="1147" d="M110 383v206q0 179 118.5 278t304.5 99q172 0 283 -111v92q0 212 -94 299l-102 -178l-123 71l96 167q-34 7 -78 7q-150 0 -267 -50l-34 142q159 59 301 59q84 0 158 -19l96 166l123 -71l-87 -151q182 -122 182 -420v-589q0 -190 -121.5 -295t-317.5 -105 q-209 0 -323.5 110t-114.5 293zM286 363q0 -106 70.5 -166.5t191.5 -60.5q122 0 195 64.5t73 177.5v283q-38 59 -102.5 102t-158.5 43q-133 0 -201 -61t-68 -176v-206z" />
<glyph unicode="&#xf1;" horiz-adv-x="1119" d="M170 0v996h144l14 -121q187 141 358 141q130 0 201.5 -72t71.5 -206v-738h-174v686q0 80 -37 121t-117 41q-62 0 -138.5 -28.5t-148.5 -79.5v-740h-174zM241 1238q29 62 82 107.5t121 45.5q41 0 118 -31.5t113 -31.5q57 0 111 69l92 -65q-29 -61 -82 -107t-121 -46 q-41 0 -118 31.5t-113 31.5q-57 0 -111 -69z" />
<glyph unicode="&#xf2;" horiz-adv-x="1084" d="M120 374v248q0 95 34 171.5t93 124.5t134.5 73t160.5 25t160.5 -25t134.5 -73t93 -124.5t34 -171.5v-248q0 -95 -34 -171.5t-93 -124.5t-134.5 -73t-160.5 -25t-160.5 25t-134.5 73t-93 124.5t-34 171.5zM292 1375l119 122l289 -318l-81 -84zM294 386q0 -118 65 -185 t183 -67t183 67t65 185v224q0 118 -65 185t-183 67t-183 -67t-65 -185v-224z" />
<glyph unicode="&#xf3;" horiz-adv-x="1084" d="M120 374v248q0 95 34 171.5t93 124.5t134.5 73t160.5 25t160.5 -25t134.5 -73t93 -124.5t34 -171.5v-248q0 -95 -34 -171.5t-93 -124.5t-134.5 -73t-160.5 -25t-160.5 25t-134.5 73t-93 124.5t-34 171.5zM294 386q0 -118 65 -185t183 -67t183 67t65 185v224 q0 118 -65 185t-183 67t-183 -67t-65 -185v-224zM395 1179l289 318l119 -122l-327 -280z" />
<glyph unicode="&#xf4;" horiz-adv-x="1084" d="M120 374v248q0 95 34 171.5t93 124.5t134.5 73t160.5 25t160.5 -25t134.5 -73t93 -124.5t34 -171.5v-248q0 -95 -34 -171.5t-93 -124.5t-134.5 -73t-160.5 -25t-160.5 25t-134.5 73t-93 124.5t-34 171.5zM248 1139l224 320h140l224 -320l-161 -20l-133 207l-133 -207z M294 386q0 -118 65 -185t183 -67t183 67t65 185v224q0 118 -65 185t-183 67t-183 -67t-65 -185v-224z" />
<glyph unicode="&#xf5;" horiz-adv-x="1084" d="M120 374v248q0 95 34 171.5t93 124.5t134.5 73t160.5 25t160.5 -25t134.5 -73t93 -124.5t34 -171.5v-248q0 -95 -34 -171.5t-93 -124.5t-134.5 -73t-160.5 -25t-160.5 25t-134.5 73t-93 124.5t-34 171.5zM223 1238q29 62 82 107.5t121 45.5q41 0 118 -31.5t113 -31.5 q57 0 111 69l92 -65q-29 -61 -82 -107t-121 -46q-41 0 -118 31.5t-113 31.5q-57 0 -111 -69zM294 386q0 -118 65 -185t183 -67t183 67t65 185v224q0 118 -65 185t-183 67t-183 -67t-65 -185v-224z" />
<glyph unicode="&#xf6;" horiz-adv-x="1084" d="M120 374v248q0 95 34 171.5t93 124.5t134.5 73t160.5 25t160.5 -25t134.5 -73t93 -124.5t34 -171.5v-248q0 -95 -34 -171.5t-93 -124.5t-134.5 -73t-160.5 -25t-160.5 25t-134.5 73t-93 124.5t-34 171.5zM252 1290q0 50 28 77.5t77 27.5t77 -27.5t28 -77.5t-28 -77.5 t-77 -27.5t-77 27.5t-28 77.5zM294 386q0 -118 65 -185t183 -67t183 67t65 185v224q0 118 -65 185t-183 67t-183 -67t-65 -185v-224zM622 1290q0 50 28 77.5t77 27.5t77 -27.5t28 -77.5t-28 -77.5t-77 -27.5t-77 27.5t-28 77.5z" />
<glyph unicode="&#xf7;" horiz-adv-x="1039" d="M150 600v154h749v-154h-749zM419 375q0 49 27.5 77t77.5 28t77.5 -28t27.5 -77t-27.5 -77t-77.5 -28t-77.5 28t-27.5 77zM419 979q0 49 27.5 77t77.5 28t77.5 -28t27.5 -77t-27.5 -77t-77.5 -28t-77.5 28t-27.5 77z" />
<glyph unicode="&#xf8;" horiz-adv-x="1084" d="M120 374v248q0 95 34 171.5t93 124.5t134.5 73t160.5 25q74 0 143 -20l100 234h143l-124 -288q160 -108 160 -320v-248q0 -95 -34 -171.5t-93 -124.5t-134.5 -73t-160.5 -25q-77 0 -143 19l-100 -234h-143l124 289q-160 107 -160 320zM294 386q0 -110 54 -174l275 640 q-36 10 -81 10q-118 0 -183 -67t-65 -185v-224zM461 143q37 -9 81 -9q118 0 183 67t65 185v224q0 107 -54 173z" />
<glyph unicode="&#xf9;" horiz-adv-x="1109" d="M160 258v738h174v-686q0 -162 149 -162q61 0 136.5 28t145.5 79v741h174v-996h-144l-14 121q-183 -141 -353 -141q-127 0 -197.5 71.5t-70.5 206.5zM250 1375l119 122l289 -318l-81 -84z" />
<glyph unicode="&#xfa;" horiz-adv-x="1109" d="M160 258v738h174v-686q0 -162 149 -162q61 0 136.5 28t145.5 79v741h174v-996h-144l-14 121q-183 -141 -353 -141q-127 0 -197.5 71.5t-70.5 206.5zM418 1179l289 318l119 -122l-327 -280z" />
<glyph unicode="&#xfb;" horiz-adv-x="1109" d="M160 258v738h174v-686q0 -162 149 -162q61 0 136.5 28t145.5 79v741h174v-996h-144l-14 121q-183 -141 -353 -141q-127 0 -197.5 71.5t-70.5 206.5zM260 1139l224 320h140l224 -320l-161 -20l-133 207l-133 -207z" />
<glyph unicode="&#xfc;" horiz-adv-x="1109" d="M160 258v738h174v-686q0 -162 149 -162q61 0 136.5 28t145.5 79v741h174v-996h-144l-14 121q-183 -141 -353 -141q-127 0 -197.5 71.5t-70.5 206.5zM264 1290q0 50 28 77.5t77 27.5t77 -27.5t28 -77.5t-28 -77.5t-77 -27.5t-77 27.5t-28 77.5zM634 1290q0 50 28 77.5 t77 27.5t77 -27.5t28 -77.5t-28 -77.5t-77 -27.5t-77 27.5t-28 77.5z" />
<glyph unicode="&#xfd;" d="M30 996h184l280 -827l292 827h184l-366 -996l-170 -448h-178l174 448h-48zM396 1179l289 318l119 -122l-327 -280z" />
<glyph unicode="&#xfe;" horiz-adv-x="1103" d="M170 -448v1892h174v-539q144 111 295 111q67 0 128 -27t109.5 -76.5t77.5 -127.5t29 -173v-227q0 -193 -118 -299t-311 -106q-103 0 -215 36v-464h-169zM344 175q113 -41 214 -41q251 0 251 262v203q0 258 -212 258q-135 0 -253 -98v-584z" />
<glyph unicode="&#xff;" d="M30 996h184l280 -827l292 827h184l-366 -996l-170 -448h-178l174 448h-48zM210 1290q0 50 28 77.5t77 27.5t77 -27.5t28 -77.5t-28 -77.5t-77 -27.5t-77 27.5t-28 77.5zM580 1290q0 50 28 77.5t77 27.5t77 -27.5t28 -77.5t-28 -77.5t-77 -27.5t-77 27.5t-28 77.5z" />
<glyph unicode="&#x152;" horiz-adv-x="1669" d="M120 434v486q0 110 38.5 198t105 143t151.5 84t182 29q148 0 244 -79v59h747v-160h-568v-431h548v-160h-548v-443h589v-160h-768v62q-109 -82 -244 -82q-97 0 -182 29t-151.5 84t-105 143t-38.5 198zM296 448q0 -147 78.5 -229.5t222.5 -82.5q161 0 244 106v868 q-83 108 -244 108q-144 0 -222.5 -82.5t-78.5 -229.5v-458z" />
<glyph unicode="&#x153;" horiz-adv-x="1570" d="M120 374v248q0 95 34 171.5t93 124.5t134.5 73t160.5 25q164 0 274 -94q105 94 259 94q78 0 147.5 -27t122.5 -77t84 -127.5t31 -172.5v-175h-596v-51q0 -118 64.5 -182.5t186.5 -64.5q150 0 309 44l16 -151q-163 -52 -330 -52q-178 0 -290 97q-112 -97 -278 -97 q-85 0 -160.5 25t-134.5 73t-93 124.5t-34 171.5zM294 386q0 -118 65 -185t183 -67q119 0 184 68q-36 81 -36 182v228q0 99 35 182q-65 68 -183 68t-183 -67t-65 -185v-224zM864 567h422v43q0 252 -211 252t-211 -252v-43z" />
<glyph unicode="&#x178;" horiz-adv-x="1120" d="M45 1354h189l326 -683l326 683h189l-426 -858v-496h-178v496zM270 1648q0 50 28 77.5t77 27.5t77 -27.5t28 -77.5t-28 -77.5t-77 -27.5t-77 27.5t-28 77.5zM640 1648q0 50 28 77.5t77 27.5t77 -27.5t28 -77.5t-28 -77.5t-77 -27.5t-77 27.5t-28 77.5z" />
<glyph unicode="&#x2c6;" horiz-adv-x="788" d="M100 1139l224 320h140l224 -320l-161 -20l-133 207l-133 -207z" />
<glyph unicode="&#x2dc;" horiz-adv-x="837" d="M100 1238q29 62 82 107.5t121 45.5q41 0 118 -31.5t113 -31.5q57 0 111 69l92 -65q-29 -61 -82 -107t-121 -46q-41 0 -118 31.5t-113 31.5q-57 0 -111 -69z" />
<glyph unicode="&#x2000;" horiz-adv-x="943" />
<glyph unicode="&#x2001;" horiz-adv-x="1887" />
<glyph unicode="&#x2002;" horiz-adv-x="943" />
<glyph unicode="&#x2003;" horiz-adv-x="1887" />
<glyph unicode="&#x2004;" horiz-adv-x="629" />
<glyph unicode="&#x2005;" horiz-adv-x="471" />
<glyph unicode="&#x2006;" horiz-adv-x="314" />
<glyph unicode="&#x2007;" horiz-adv-x="314" />
<glyph unicode="&#x2008;" horiz-adv-x="235" />
<glyph unicode="&#x2009;" horiz-adv-x="377" />
<glyph unicode="&#x200a;" horiz-adv-x="104" />
<glyph unicode="&#x2010;" horiz-adv-x="775" d="M100 427v142h575v-142h-575z" />
<glyph unicode="&#x2011;" horiz-adv-x="775" d="M100 427v142h575v-142h-575z" />
<glyph unicode="&#x2012;" horiz-adv-x="775" d="M100 427v142h575v-142h-575z" />
<glyph unicode="&#x2013;" horiz-adv-x="1125" d="M100 427v142h925v-142h-925z" />
<glyph unicode="&#x2014;" horiz-adv-x="1575" d="M100 427v142h1375v-142h-1375z" />
<glyph unicode="&#x2018;" horiz-adv-x="368" d="M90 957v133q0 223 117 394h131q-34 -70 -56.5 -168t-22.5 -197v-162h-169z" />
<glyph unicode="&#x2019;" horiz-adv-x="418" d="M70 927q34 70 56.5 168t22.5 197v162h169v-133q0 -223 -117 -394h-131z" />
<glyph unicode="&#x201a;" horiz-adv-x="378" d="M20 -347q34 70 56.5 168t22.5 197v162h169v-133q0 -223 -117 -394h-131z" />
<glyph unicode="&#x201c;" horiz-adv-x="708" d="M90 957v133q0 223 117 394h131q-34 -70 -56.5 -168t-22.5 -197v-162h-169zM430 957v133q0 223 117 394h131q-34 -70 -56.5 -168t-22.5 -197v-162h-169z" />
<glyph unicode="&#x201d;" horiz-adv-x="758" d="M70 927q34 70 56.5 168t22.5 197v162h169v-133q0 -223 -117 -394h-131zM410 927q34 70 56.5 168t22.5 197v162h169v-133q0 -223 -117 -394h-131z" />
<glyph unicode="&#x201e;" horiz-adv-x="718" d="M20 -347q34 70 56.5 168t22.5 197v162h169v-133q0 -223 -117 -394h-131zM360 -347q34 70 56.5 168t22.5 197v162h169v-133q0 -223 -117 -394h-131z" />
<glyph unicode="&#x2022;" horiz-adv-x="615" d="M100 677q0 97 55 151.5t153 54.5q97 0 152 -54.5t55 -151.5t-54.5 -152t-152.5 -55t-153 54.5t-55 152.5z" />
<glyph unicode="&#x2026;" horiz-adv-x="1210" d="M100 85q0 49 28 77t77 28t77 -28t28 -77t-28 -77t-77 -28t-77 28t-28 77zM500 85q0 49 28 77t77 28t77 -28t28 -77t-28 -77t-77 -28t-77 28t-28 77zM900 85q0 49 28 77t77 28t77 -28t28 -77t-28 -77t-77 -28t-77 28t-28 77z" />
<glyph unicode="&#x202f;" horiz-adv-x="377" />
<glyph unicode="&#x2039;" horiz-adv-x="558" d="M100 498l259 435l139 -67l-213 -368l213 -368l-139 -67z" />
<glyph unicode="&#x203a;" horiz-adv-x="558" d="M60 130l213 368l-213 368l139 67l259 -435l-259 -435z" />
<glyph unicode="&#x205f;" horiz-adv-x="471" />
<glyph unicode="&#x20ac;" horiz-adv-x="1259" d="M140 470v144h749v-144h-418v-32q0 -137 93.5 -215.5t245.5 -78.5q144 0 285 47l24 -151q-142 -60 -333 -60q-93 0 -181 31.5t-157 87.5t-111 141t-42 184v46h-155zM140 738v144h155v28q0 88 27.5 164t74.5 130.5t110 93t135.5 57.5t149.5 19q96 0 181 -19.5t124 -37.5 l-30 -159q-160 52 -274 52q-140 0 -231 -85.5t-91 -228.5v-14h418v-144h-749z" />
<glyph unicode="&#x2122;" horiz-adv-x="1091" d="M25 1242v112h438v-112h-156v-425h-126v425h-156zM517 817v537h129l143 -314l148 314h129v-537h-122v332l-114 -267h-79l-112 263v-328h-122z" />
<glyph unicode="&#x25fc;" horiz-adv-x="995" d="M0 0v995h995v-995h-995z" />
<glyph unicode="&#xfb02;" horiz-adv-x="1114" d="M30 854v142h155v99q0 167 111.5 268t307.5 101q167 0 340 -61v-1403h-174v1292q-97 18 -173 18q-117 0 -177.5 -52.5t-60.5 -171.5v-90h236v-142h-236v-854h-174v854h-155z" />
<glyph unicode="&#xfb04;" horiz-adv-x="1679" d="M30 854v142h155v149q0 133 85.5 216t223.5 83q86 0 166 -20l-19 -148q-65 14 -124 14q-83 0 -120.5 -38t-37.5 -126v-130h391v99q0 167 111.5 268t307.5 101q167 0 340 -61v-1403h-174v1292q-97 18 -173 18q-117 0 -177.5 -52.5t-60.5 -171.5v-90h236v-142h-236v-854 h-174v854h-391v-854h-174v854h-155z" />
</font>
</defs>
</svg>
