<?xml version="1.0" standalone="no"?>
<!DOCTYPE svg PUBLIC "-//W3C//DTD SVG 1.1//EN" "http://www.w3.org/Graphics/SVG/1.1/DTD/svg11.dtd" >
<svg xmlns="http://www.w3.org/2000/svg">
<metadata></metadata>
<defs>
<font id="trasandina_mediummedium" horiz-adv-x="1216" >
<font-face units-per-em="2048" ascent="1638" descent="-410" />
<missing-glyph horiz-adv-x="466" />
<glyph unicode="&#x30;&#x2f;&#x30;" horiz-adv-x="1663" d="M90 924v157q0 135 90.5 209t223.5 74q134 0 225 -74t91 -209v-157q0 -135 -91 -209t-225 -74q-133 0 -223.5 74t-90.5 209zM277 934q0 -61 34.5 -95.5t92.5 -34.5t93.5 34.5t35.5 95.5v137q0 61 -35.5 95.5t-93.5 34.5t-92.5 -34.5t-34.5 -95.5v-137zM351 0l784 1354h174 l-784 -1354h-174zM943 272v157q0 135 90.5 209t223.5 74q134 0 225 -74t91 -209v-157q0 -135 -91 -209t-225 -74q-133 0 -223.5 74t-90.5 209zM1130 282q0 -61 34.5 -95.5t92.5 -34.5t93.5 34.5t35.5 95.5v137q0 61 -35.5 95.5t-93.5 34.5t-92.5 -34.5t-34.5 -95.5v-137z " />
<glyph unicode="&#x31;&#x2f;&#x34;" horiz-adv-x="946" d="M38 606v143h836v-143h-836zM181 50l300 432v2h180v-426h108v-146h-108v-131h-185v131h-295v138zM219 1503l236 71h148v-544h162v-159h-532v159h179v360l-181 -38zM366 53h121v179z" />
<glyph unicode="&#x31;&#x2f;&#x32;" horiz-adv-x="946" d="M38 606v143h836v-143h-836zM202 1503l237 71h147v-544h162v-159h-532v159h179v360l-181 -38zM223 -71q169 107 211 139q112 86 112 157q0 50 -37 74t-99 24q-63 0 -163 -20l-20 162q108 27 215 27q133 0 220 -64.5t87 -195.5q0 -155 -249 -293h275v-160h-552v150z" />
<glyph unicode="&#x33;&#x2f;&#x34;" horiz-adv-x="946" d="M38 606v143h836v-143h-836zM181 50l300 432v2h180v-426h108v-146h-108v-131h-185v131h-295v138zM227 883l18 156q78 -17 148 -18q42 0 72 6q69 14 69 62q0 36 -32 54t-79 18h-125v126h125q99 0 99 66q0 49 -61 65q-29 8 -66 8q-64 -1 -147 -17l-19 148q96 27 197 27 q142 0 220 -55t78 -153q0 -104 -101 -146q113 -39 113 -164q0 -100 -81 -152.5t-234 -52.5q-106 0 -194 22zM366 53h121v179z" />
<glyph horiz-adv-x="0" />
<glyph horiz-adv-x="682" />
<glyph unicode=" "  horiz-adv-x="466" />
<glyph unicode="&#x09;" horiz-adv-x="466" />
<glyph unicode="&#xa0;" horiz-adv-x="466" />
<glyph unicode="!" horiz-adv-x="441" d="M93 104q0 61 33 93t94 32q62 0 95 -32t33 -93q0 -60 -33 -92t-95 -32q-61 0 -94 32t-33 92zM93 1354h255l-33 -974h-189z" />
<glyph unicode="&#x22;" horiz-adv-x="734" d="M92 1387h201l-13 -521h-175zM441 1387h200l-12 -521h-176z" />
<glyph unicode="#" horiz-adv-x="1501" d="M141 350l23 175h235l40 298h-229l24 177h229l49 354h197l-49 -354h271l49 354h195l-48 -354h224l-24 -177h-225l-40 -298h224l-23 -175h-225l-48 -350h-198l48 350h-269l-47 -350h-196l47 350h-234zM596 525h268l42 298h-270z" />
<glyph unicode="$" horiz-adv-x="1062" d="M129 146l35 185q54 -18 144 -34t170 -16q106 0 164.5 30.5t58.5 106.5q0 33 -13 57.5t-33.5 42t-60 33.5t-77.5 27.5t-101 28.5q-36 10 -55 15q-229 63 -229 316q0 121 82 208.5t223 110.5l-12 280h215l-11 -275q115 -8 243 -42l-30 -185q-139 38 -284 38 q-99 0 -154.5 -34.5t-55.5 -100.5q0 -32 10 -54.5t25.5 -38t50 -30t68 -24.5t94.5 -27q29 -8 44 -12q143 -40 211.5 -119.5t68.5 -215.5q0 -142 -82 -224t-242 -99l11 -277h-215l12 275q-148 11 -275 54z" />
<glyph unicode="&#x26;" horiz-adv-x="1258" d="M82 377q0 66 17.5 122.5t50.5 101.5t71.5 79.5t90.5 68.5q-70 95 -98 153.5t-28 136.5q0 164 122 249.5t319 85.5q171 0 351 -63l-32 -188q-56 19 -142 36t-159 17q-118 0 -180 -36t-62 -118q0 -50 24 -95.5t80 -113.5l402 -515q23 38 23 103q0 32 -3 60t-13 56.5t-17 49 t-27 49.5t-30 44t-39 47.5t-41 46t-49.5 52.5t-51.5 54v112h529v-182h-232q169 -186 169 -373q0 -166 -96 -274l157 -197l-151 -120l-163 205q-109 -50 -265 -50q-239 0 -383 103.5t-144 292.5zM298 397q0 -104 81 -165t224 -61q88 0 148 21l-330 422q-61 -44 -92 -92.5 t-31 -124.5z" />
<glyph unicode="'" horiz-adv-x="378" d="M89 1387h200l-12 -521h-176z" />
<glyph unicode="(" horiz-adv-x="679" d="M122 677q0 131 25 257.5t68.5 230t89.5 188.5t102.5 158t91 112.5t70.5 75.5l147 -107q-365 -452 -365 -915q0 -110 19.5 -218.5t56.5 -202t72 -167t84.5 -146t73.5 -105t59 -75.5l-147 -107q-36 36 -70.5 75.5t-91 112.5t-102.5 158t-89.5 188.5t-68.5 229.5t-25 257z " />
<glyph unicode=")" horiz-adv-x="679" d="M-37 -239q365 452 365 915q0 110 -19.5 218.5t-56.5 202t-72 167t-84.5 146t-73.5 105t-59 75.5l147 107q36 -36 70.5 -75.5t91 -112.5t102.5 -158t89.5 -188.5t68.5 -229.5t25 -257t-25 -257.5t-68.5 -230t-89.5 -188.5t-102.5 -158t-91 -112.5t-70.5 -75.5z" />
<glyph unicode="*" horiz-adv-x="766" d="M45 1151l51 164l216 -88l-14 226h170l-13 -226l215 88l51 -164l-228 -66l146 -179l-133 -94l-123 182l-122 -182l-134 94l146 179z" />
<glyph unicode="+" horiz-adv-x="1122" d="M141 580v194h312v332h216v-332h312v-194h-312v-331h-216v331h-312z" />
<glyph unicode="," horiz-adv-x="405" d="M22 -286q31 66 52.5 162t21.5 191v143h208v-102q0 -223 -127 -394h-155z" />
<glyph unicode="-" horiz-adv-x="761" d="M91 408v179h579v-179h-579z" />
<glyph unicode="." horiz-adv-x="432" d="M88 104q0 60 33.5 92.5t94.5 32.5q62 0 95 -32t33 -93q0 -60 -33 -92t-95 -32q-61 0 -94.5 32t-33.5 92z" />
<glyph unicode="/" horiz-adv-x="992" d="M-37 -325l827 2004h238l-827 -2004h-238z" />
<glyph unicode="0" horiz-adv-x="1177" d="M106 437v480q0 147 65 252t172.5 155t244.5 50q212 0 347.5 -119t135.5 -338v-480q0 -219 -135.5 -338t-347.5 -119q-137 0 -244.5 50t-172.5 155t-65 252zM338 442q0 -129 64.5 -200.5t185.5 -71.5q122 0 186.5 71.5t64.5 200.5v470q0 128 -64.5 199.5t-186.5 71.5 q-121 0 -185.5 -71.5t-64.5 -199.5v-470z" />
<glyph unicode="1" horiz-adv-x="718" d="M50 1229l341 125h174v-1354h-229v1123l-261 -88z" />
<glyph unicode="2" horiz-adv-x="984" d="M92 0v182q100 111 149 166t121.5 139t105.5 128t76 105t61 101t31 84t13 84q0 90 -59.5 135.5t-163.5 45.5q-145 0 -290 -58l-30 191q157 71 336 71q89 0 166 -23t138 -68.5t96 -120t35 -171.5q0 -57 -12 -111.5t-42.5 -113t-61.5 -107t-90.5 -119.5t-106.5 -123.5 t-131 -144.5q-43 -47 -65 -71h535v-201h-811z" />
<glyph unicode="3" horiz-adv-x="940" d="M71 22l23 191q133 -35 280 -35q115 0 191 54t76 156q0 98 -75 150.5t-181 52.5h-175v185h178q95 0 163 53.5t68 145.5q0 99 -63.5 150t-179.5 51q-134 0 -267 -38l-23 182q146 54 318 54q198 0 315.5 -98t117.5 -277q0 -210 -194 -308q100 -43 158 -128t58 -204 q0 -186 -128 -282.5t-345 -96.5q-163 0 -315 42z" />
<glyph unicode="4" horiz-adv-x="1152" d="M106 298v176l586 880h206v-870h168v-186h-168v-298h-215v298h-577zM342 484h345v520z" />
<glyph unicode="5" horiz-adv-x="994" d="M86 20l31 196q148 -32 293 -32q278 0 278 211q0 224 -308 226q-68 0 -254 -6l30 739h689v-201h-502l-15 -350q56 1 131 -2q212 -10 335 -112t123 -297q0 -209 -127 -310.5t-360 -101.5q-186 0 -344 40z" />
<glyph unicode="6" horiz-adv-x="1095" d="M106 394v385q0 67 3 133q7 222 142 342t382 120q143 0 294 -40l-32 -196q-132 35 -260 35q-165 0 -237.5 -76.5t-74.5 -227.5v-117q137 57 261 57q92 0 168.5 -25.5t134.5 -76t90 -132t32 -187.5q0 -188 -118.5 -298t-332.5 -110q-203 0 -327.5 107t-124.5 307zM323 389 q0 -101 63.5 -158t171.5 -57q107 0 168.5 54t61.5 148q0 245 -237 245q-126 0 -228 -49v-183z" />
<glyph unicode="7" horiz-adv-x="912" d="M35 1154v200h807v-190l-447 -1164h-240l460 1154h-580z" />
<glyph unicode="8" horiz-adv-x="1060" d="M73 322q0 118 64 203.5t203 158.5q-122 67 -179.5 144t-57.5 186q0 160 115 260t312 100t312 -100t115 -260q0 -102 -58 -178.5t-179 -144.5q140 -75 205 -162.5t65 -209.5q0 -152 -124.5 -245.5t-335.5 -93.5q-212 0 -334.5 93.5t-122.5 248.5zM302 345 q0 -87 64.5 -136.5t163.5 -49.5t164 49.5t65 136.5q0 75 -55.5 136t-177.5 122q-131 -57 -177.5 -116.5t-46.5 -141.5zM319 1005q0 -66 52.5 -120.5t162.5 -111.5q118 52 163 106t45 126q0 89 -60 134.5t-152 45.5q-93 0 -152 -45t-59 -135z" />
<glyph unicode="9" horiz-adv-x="1095" d="M86 961q0 191 119 302t332 111q204 0 328 -107t124 -307v-399q0 -48 -2 -136q-6 -214 -138 -329.5t-371 -115.5q-103 0 -193.5 16.5t-129.5 31.5l31 196q51 -14 78.5 -20.5t77 -13.5t101.5 -7q76 -1 133 12t102 45t69 89t25 139v125q-137 -57 -260 -57q-92 0 -168.5 26 t-134.5 76.5t-90.5 133t-32.5 189.5zM307 974q0 -250 237 -250q124 0 228 50v191q0 101 -63.5 158t-171.5 57q-107 0 -168.5 -55t-61.5 -151z" />
<glyph unicode=":" horiz-adv-x="432" d="M88 104q0 60 33.5 92.5t94.5 32.5q62 0 95 -32t33 -93q0 -60 -33 -92t-95 -32q-61 0 -94.5 32t-33.5 92zM88 892q0 60 33.5 92t94.5 32q62 0 95 -32t33 -92q0 -61 -33 -93t-95 -32q-61 0 -94.5 32.5t-33.5 92.5z" />
<glyph unicode=";" horiz-adv-x="401" d="M41 -286q31 66 53 161.5t22 191.5v143h208v-102q0 -220 -127 -394h-156zM88 892q0 60 33.5 92t94.5 32q62 0 95 -32t33 -92q0 -61 -33 -93t-95 -32q-61 0 -94.5 32.5t-33.5 92.5z" />
<glyph unicode="&#x3c;" horiz-adv-x="991" d="M141 677l559 488l149 -136l-411 -352l411 -352l-149 -136z" />
<glyph unicode="=" horiz-adv-x="1014" d="M141 411v190h732v-190h-732zM141 753v190h732v-190h-732z" />
<glyph unicode="&#x3e;" horiz-adv-x="991" d="M141 325l411 352l-411 352l149 136l559 -488l-559 -488z" />
<glyph unicode="?" horiz-adv-x="772" d="M7 1313q153 61 327 61q77 0 145 -19.5t124 -58t89.5 -104.5t36.5 -151q1 -68 -18 -136q-17 -57 -52.5 -111t-73.5 -95t-74.5 -80.5t-62 -81t-29.5 -81.5q-15 -36 -20 -77h-180q-2 5 -3.5 34t-0.5 55q1 55 23 106.5t53.5 89t68 79t67.5 77t51.5 83.5t20.5 98 q0 88 -56.5 127.5t-149.5 39.5q-102 0 -246 -48zM185 104q0 60 33.5 92.5t94.5 32.5q62 0 95 -32t33 -93q0 -60 -33 -92t-95 -32q-61 0 -94.5 32t-33.5 92z" />
<glyph unicode="@" horiz-adv-x="2114" d="M143 370q3 222 82.5 412.5t217.5 325t333.5 210.5t422.5 76q153 0 281 -42t217 -114.5t150 -170.5t89 -209t26 -231q-4 -292 -136 -469.5t-340 -177.5q-87 0 -149.5 44.5t-92.5 114.5q-168 -139 -360 -139q-133 0 -213.5 110.5t-55.5 292.5l22 151q27 198 157.5 310 t325.5 112q220 0 374 -110l-79 -571q-4 -59 22 -98.5t80 -39.5q95 0 165 120t72 331q3 132 -30 239.5t-103 188.5t-186 125.5t-270 44.5q-177 0 -327 -62.5t-254.5 -171.5t-164 -261.5t-61.5 -328.5q-5 -279 130 -444t373 -165q126 0 302 44l28 -162q-173 -60 -368 -60 q-203 0 -359.5 97.5t-240.5 274t-80 403.5zM830 423q-30 -231 144 -231q110 0 224 93l66 476q-85 29 -164 29q-109 0 -173.5 -64.5t-78.5 -171.5z" />
<glyph unicode="A" horiz-adv-x="1209" d="M29 0l409 1354h333l409 -1354h-246l-90 315h-479l-90 -315h-246zM414 504h382l-192 670z" />
<glyph unicode="B" horiz-adv-x="1138" d="M153 0v1354h463q205 0 307.5 -96.5t102.5 -272.5q0 -99 -49 -172.5t-140 -113.5q106 -37 172.5 -121.5t66.5 -194.5q0 -187 -121.5 -285t-332.5 -98h-469zM377 187h219q121 0 187 53t66 160q0 106 -69 158.5t-190 52.5h-213v-424zM377 781h229q98 0 147.5 51.5 t49.5 143.5q0 191 -208 191h-218v-386z" />
<glyph unicode="C" horiz-adv-x="972" d="M106 428v481q0 111 40.5 200.5t109.5 146.5t157 87.5t187 30.5q97 0 181.5 -19t124.5 -36l-32 -194q-152 46 -262 46q-119 0 -197 -76t-78 -204v-445q0 -123 79.5 -193.5t210.5 -70.5q129 0 273 44l25 -190q-141 -56 -333 -56q-129 0 -238.5 52.5t-178.5 156.5t-69 239z " />
<glyph unicode="D" horiz-adv-x="1211" d="M153 0v1354h454q139 0 251.5 -53t179.5 -153.5t67 -231.5v-481q0 -110 -38.5 -194.5t-107 -136.5t-157.5 -78t-195 -26h-454zM384 189h208q138 0 210 66.5t72 189.5v440q0 120 -72 200t-210 80h-208v-976z" />
<glyph unicode="E" horiz-adv-x="1028" d="M153 0v1354h798v-201h-566v-374h545v-194h-545v-384h586v-201h-818z" />
<glyph unicode="F" horiz-adv-x="1001" d="M153 0v1354h793v-199h-561v-374h541v-198h-541v-583h-232z" />
<glyph unicode="G" horiz-adv-x="1108" d="M106 440v456q0 153 71.5 262.5t191 162.5t274.5 53q193 0 352 -65l-40 -191q-146 53 -289 53q-157 0 -243 -76.5t-86 -214.5v-429q0 -135 76.5 -202.5t219.5 -67.5q94 0 169 22v460h210v-605q-76 -34 -185.5 -56t-221.5 -22q-140 0 -251.5 51t-179.5 157t-68 252z" />
<glyph unicode="H" horiz-adv-x="1313" d="M153 0v1354h231v-571h545v571h231v-1354h-231v578h-545v-578h-231z" />
<glyph unicode="I" horiz-adv-x="537" d="M153 0v1354h231v-1354h-231z" />
<glyph unicode="J" horiz-adv-x="538" d="M-45 -318q48 32 79.5 59t61 65.5t43.5 88.5t14 113v1346h232v-1360q0 -88 -22.5 -158t-68.5 -124.5t-101.5 -95.5t-136.5 -83z" />
<glyph unicode="K" horiz-adv-x="1133" d="M153 0v1354h231v-570h179l275 570h252l-344 -685l362 -669h-257l-303 582h-164v-582h-231z" />
<glyph unicode="L" horiz-adv-x="962" d="M153 0v1354h231v-1152h541v-202h-772z" />
<glyph unicode="M" horiz-adv-x="1567" d="M153 0v1354h280l356 -880l358 880h280v-1354h-218v988l-344 -812h-150l-344 811v-987h-218z" />
<glyph unicode="N" horiz-adv-x="1317" d="M153 0v1354h236l547 -962v962h228v-1354h-236l-547 962v-962h-228z" />
<glyph unicode="O" d="M106 435v484q0 146 67.5 250.5t179.5 154.5t255 50t255 -50t179.5 -154.5t67.5 -250.5v-484q0 -146 -67.5 -250.5t-179.5 -154.5t-255 -50t-255 50t-179.5 154.5t-67.5 250.5zM337 467q0 -136 68.5 -216.5t202.5 -80.5q133 0 202 80t69 217v420q0 136 -69 216t-202 80 q-130 0 -200.5 -71t-70.5 -198v-447z" />
<glyph unicode="P" horiz-adv-x="1133" d="M153 0v1354h454q126 0 227 -44.5t164.5 -138t63.5 -223.5v-102q0 -98 -36.5 -176.5t-99.5 -127.5t-144.5 -74.5t-174.5 -25.5h-223v-442h-231zM384 630h210q113 0 175.5 62t62.5 177v66q0 111 -63 170.5t-175 59.5h-210v-535z" />
<glyph unicode="Q" d="M106 435v484q0 146 67.5 250.5t179.5 154.5t255 50t255 -50t179.5 -154.5t67.5 -250.5v-484q0 -178 -96 -290.5t-255 -147.5l159 -287l-204 -50l-135 322q-100 3 -185.5 33.5t-150 86t-101 141t-36.5 192.5zM337 467q0 -136 68.5 -216.5t202.5 -80.5q133 0 202 80t69 217 v420q0 136 -69 216t-202 80q-130 0 -200.5 -71t-70.5 -198v-447z" />
<glyph unicode="R" horiz-adv-x="1157" d="M153 0v1354h462q126 0 227.5 -44.5t164.5 -138t63 -223.5v-78q0 -138 -69.5 -231.5t-183.5 -135.5l265 -503h-253l-233 466h-212v-466h-231zM384 650h219q109 0 173 58t64 168v65q0 109 -64 166.5t-173 57.5h-219v-515z" />
<glyph unicode="S" horiz-adv-x="1001" d="M73 43l33 198q173 -56 330 -56q132 0 200 38.5t68 139.5q0 27 -4.5 49t-16 40.5t-23 32.5t-35.5 28.5t-42.5 24t-54.5 22.5t-61 21.5t-72.5 24t-79.5 26.5q-229 77 -229 352q0 169 117.5 279.5t317.5 110.5q186 0 356 -52l-29 -200q-151 48 -301 48q-111 0 -174 -45.5 t-63 -130.5q0 -80 35.5 -121t128.5 -71l160 -52q153 -50 225.5 -138t72.5 -246q0 -189 -116.5 -287.5t-345.5 -98.5q-226 0 -397 63z" />
<glyph unicode="T" horiz-adv-x="1031" d="M28 1155v199h975v-199h-371v-1155h-233v1155h-371z" />
<glyph unicode="U" horiz-adv-x="1260" d="M143 411v943h231v-943q0 -106 70.5 -171t185.5 -65q116 0 186 65t70 171v943h231v-943q0 -199 -133 -315t-354 -116t-354 116t-133 315z" />
<glyph unicode="V" horiz-adv-x="1180" d="M29 1354h246l315 -1132l315 1132h246l-391 -1354h-340z" />
<glyph unicode="W" horiz-adv-x="1789" d="M32 1354h246l255 -1109l244 1089h235l245 -1089l254 1109h246l-331 -1354h-309l-223 981l-222 -981h-309z" />
<glyph unicode="X" horiz-adv-x="1152" d="M29 0l379 675l-362 679h255l276 -519l274 519h255l-362 -664l379 -690h-263l-282 529l-286 -529h-263z" />
<glyph unicode="Y" horiz-adv-x="1133" d="M37 1354h241l289 -638l288 638h241l-414 -864v-490h-231v490z" />
<glyph unicode="Z" horiz-adv-x="1041" d="M65 0v177l607 978h-577v199h845v-177l-608 -978h639v-199h-906z" />
<glyph unicode="[" horiz-adv-x="620" d="M154 -325v2004h427v-181h-209v-1642h209v-181h-427z" />
<glyph unicode="\" horiz-adv-x="992" d="M-37 1679h238l827 -2004h-237z" />
<glyph unicode="]" horiz-adv-x="620" d="M39 -145h210v1642h-210v181h428v-2004h-428v181z" />
<glyph unicode="^" horiz-adv-x="994" d="M88 809l301 635h216l301 -635h-216l-194 453l-193 -453h-215z" />
<glyph unicode="_" horiz-adv-x="1067" d="M91 -66h885v-173h-885v173z" />
<glyph unicode="`" horiz-adv-x="622" d="M88 1389l184 109l262 -339l-124 -70z" />
<glyph unicode="a" horiz-adv-x="1005" d="M67 260q0 143 100 218.5t250 75.5h197v90q0 88 -42.5 133t-150.5 45q-123 0 -276 -46l-27 184q171 56 333 56q206 0 293.5 -93t87.5 -296v-377q0 -81 64 -81q32 0 64 8l4 -172q-56 -25 -135 -25q-125 0 -179 101q-139 -101 -284 -101q-135 0 -217 71t-82 209zM279 273 q0 -62 37.5 -95.5t93.5 -33.5q102 0 204 67v202h-177q-76 0 -117 -36t-41 -104z" />
<glyph unicode="b" horiz-adv-x="1109" d="M151 56v1388h219v-537q144 109 292 109q143 0 243 -105.5t100 -288.5v-228q0 -198 -121.5 -306t-329.5 -108q-235 0 -403 76zM376 197q99 -28 184 -28q114 0 167 60.5t53 167.5v200q0 224 -185 224q-116 0 -219 -85v-539z" />
<glyph unicode="c" horiz-adv-x="860" d="M105 456v84q0 54 1 80q4 187 123 291.5t302 104.5q129 0 252 -35l-28 -188l-17 4q-16 4 -34 8t-43 8.5t-53.5 7t-54.5 2.5q-108 0 -167 -64.5t-59 -175.5v-174q0 -113 61.5 -174.5t173.5 -61.5q111 0 211 25l17 -185q-119 -33 -250 -33q-125 0 -220.5 43t-153 133 t-60.5 219q-1 27 -1 81z" />
<glyph unicode="d" horiz-adv-x="1109" d="M105 374v233q0 197 114.5 303t306.5 106q104 0 213 -35v463h219v-1444h-190l-13 101q-68 -53 -134 -83t-148 -33q-15 -1 -30 -1q-41 0 -81 10q-114 29 -185.5 128.5t-71.5 251.5zM329 405q0 -230 185 -230q116 0 219 83v534q-97 37 -186 37q-218 0 -218 -239v-185z" />
<glyph unicode="e" horiz-adv-x="1007" d="M96 390v213q0 194 115 303.5t295 109.5q177 0 290.5 -110t113.5 -304q0 -33 -1 -90.5t-1 -79.5h-591v-45q0 -105 62.5 -160.5t181.5 -55.5q144 0 311 40l19 -181q-167 -50 -351 -50q-198 0 -321 108t-123 302zM317 572h377v39q0 223 -188 223q-189 0 -189 -219v-43z" />
<glyph unicode="f" horiz-adv-x="643" d="M27 819v177h144v129q0 157 86.5 248t238.5 91q102 0 184 -22l-23 -180q-81 13 -121 13q-71 0 -107 -38.5t-36 -130.5v-110h246v-177h-244v-819h-224v819h-144z" />
<glyph unicode="g" horiz-adv-x="983" d="M59 -213q0 75 46.5 133t116.5 97q-43 21 -70.5 59t-27.5 84q0 103 121 188q-78 43 -122 113.5t-44 157.5v71q0 141 112 233.5t289 92.5q84 0 162 -27q53 96 85 229l204 -58q-59 -140 -160 -236q114 -95 114 -261v-35q0 -142 -112.5 -238.5t-293.5 -96.5q-59 0 -106 10 q-63 -47 -63 -92q0 -27 19.5 -42.5t53.5 -15.5h239q152 0 251.5 -84t99.5 -236q0 -142 -113 -223t-287 -81h-158q-168 0 -262 67t-94 191zM253 -176q0 -65 51.5 -95t136.5 -30h110q49 0 82.5 4.5t66 18t49 41.5t16.5 72q0 145 -174 145h-225q-47 -23 -80 -63.5t-33 -92.5z M294 634q0 -77 48 -128t140 -51t140 51t48 128v41q0 77 -48 130t-140 53q-90 0 -139 -50.5t-49 -122.5v-51z" />
<glyph unicode="h" horiz-adv-x="1126" d="M151 0v1444h219v-553q175 125 336 125q133 0 206 -73t73 -210v-733h-225v665q0 143 -137 143q-53 0 -119.5 -24.5t-127.5 -67.5v-716h-225z" />
<glyph unicode="i" horiz-adv-x="527" d="M136 1288q0 60 33 91.5t94 31.5q62 0 95 -31.5t33 -91.5q0 -61 -33 -93t-95 -32q-61 0 -94 32t-33 93zM151 0v996h225v-996h-225z" />
<glyph unicode="j" horiz-adv-x="527" d="M-49 -318q49 33 80 59.5t61.5 65t44.5 88.5t14 113v988h225v-1002q0 -89 -22 -159t-67 -125t-100 -96t-135 -82zM136 1288q0 60 33 91.5t94 31.5q62 0 95 -31.5t33 -91.5q0 -61 -33 -93t-95 -32q-61 0 -94 32t-33 93z" />
<glyph unicode="k" horiz-adv-x="1030" d="M151 0v1444h225v-844h127l227 396h250l-300 -489l312 -507h-250l-240 420h-126v-420h-225z" />
<glyph unicode="l" horiz-adv-x="527" d="M151 0v1444h225v-1444h-225z" />
<glyph unicode="m" horiz-adv-x="1702" d="M151 0v996h190l14 -115q169 128 324 132q10 1 20 1q46 0 87 -12q109 -27 154 -127q183 141 350 141q129 0 199.5 -73t70.5 -210v-733h-224v665q0 143 -129 143q-113 0 -239 -92v-716h-224v665q0 143 -129 143q-113 0 -239 -92v-716h-225z" />
<glyph unicode="n" horiz-adv-x="1126" d="M151 0v996h190l14 -114q186 134 351 134q133 0 206 -73t73 -210v-733h-225v665q0 143 -137 143q-53 0 -119.5 -24.5t-127.5 -67.5v-716h-225z" />
<glyph unicode="o" horiz-adv-x="1088" d="M105 385v226q0 130 59 223t157 137.5t223 44.5t223 -44.5t157 -137.5t59 -223v-226q0 -130 -59 -223t-157 -137.5t-223 -44.5t-223 44.5t-157 137.5t-59 223zM329 387q0 -103 56.5 -161.5t158.5 -58.5t158.5 58.5t56.5 161.5v222q0 103 -56.5 161.5t-158.5 58.5 t-158.5 -58.5t-56.5 -161.5v-222z" />
<glyph unicode="p" horiz-adv-x="1109" d="M151 -448v1444h190l13 -101q73 57 146.5 89t161.5 32q144 0 243.5 -106t99.5 -288v-228q0 -196 -116.5 -305t-305.5 -109q-100 0 -213 33v-461h-219zM376 203q98 -36 187 -36q217 0 217 228v201q0 225 -185 225q-115 0 -219 -84v-534z" />
<glyph unicode="q" horiz-adv-x="1109" d="M105 374v228q0 198 120 306t325 108q239 0 408 -72v-1392h-219v534q-144 -106 -290 -106q-143 0 -243.5 105.5t-100.5 288.5zM329 398q0 -223 185 -223q118 0 219 83v539q-94 28 -186 28q-112 0 -165 -60t-53 -167v-200z" />
<glyph unicode="r" horiz-adv-x="724" d="M151 0v996h187l17 -146q65 65 156.5 115t174.5 51l3 -220q-78 -5 -164.5 -43.5t-148.5 -93.5v-659h-225z" />
<glyph unicode="s" horiz-adv-x="838" d="M77 31l30 171q46 -16 121 -30.5t146 -14.5q99 0 143 22t44 84q0 67 -46.5 99.5t-183.5 65.5q-137 35 -195 98t-58 202q0 127 98 207.5t264 80.5q157 0 291 -36l-24 -174q-125 33 -243 33q-88 0 -132.5 -26.5t-44.5 -88.5q0 -60 41.5 -88t167.5 -59q154 -39 214 -104.5 t60 -200.5q0 -292 -365 -292q-101 0 -189.5 15.5t-138.5 35.5z" />
<glyph unicode="t" horiz-adv-x="684" d="M21 819v177h149l14 278h200v-139t1 -139h232v-177h-228v-525q0 -71 31 -98t89 -27q51 0 128 14l15 -179q-85 -24 -196 -24q-128 0 -204 61.5t-82 188.5q-5 134 -5 589h-144z" />
<glyph unicode="u" horiz-adv-x="1110" d="M133 263v733h224v-665q0 -143 134 -143q52 0 117.5 24t125.5 67v717h224v-996h-189l-15 114q-180 -134 -347 -134q-131 0 -202.5 73t-71.5 210z" />
<glyph unicode="v" horiz-adv-x="994" d="M23 996h237l237 -781l237 781h237l-332 -996h-284z" />
<glyph unicode="w" horiz-adv-x="1507" d="M27 996h233l196 -771l205 753h186l204 -753l196 771h233l-278 -996h-266l-183 654l-181 -654h-266z" />
<glyph unicode="x" horiz-adv-x="975" d="M27 0l300 499l-282 497h246l196 -369l198 369h245l-282 -483l301 -513h-244l-218 394l-217 -394h-243z" />
<glyph unicode="y" horiz-adv-x="1024" d="M21 996h237l245 -791l256 791h240l-350 -996l-163 -448h-228l165 448h-68z" />
<glyph unicode="z" horiz-adv-x="841" d="M69 0v158l458 664h-444v174h690v-163l-462 -658h477v-175h-719z" />
<glyph unicode="{" horiz-adv-x="709" d="M73 583v189h45q66 0 100.5 47.5t34.5 105.5v452q0 137 78.5 219.5t217.5 82.5h127v-190h-97q-51 0 -82 -34t-31 -94v-401q0 -126 -38.5 -192t-130.5 -91q92 -24 130.5 -86.5t38.5 -178.5v-403q0 -70 30.5 -107t82.5 -37h97v-190h-127q-138 0 -217 79.5t-79 205.5v453 q0 67 -34.5 118.5t-100.5 51.5h-45z" />
<glyph unicode="|" horiz-adv-x="529" d="M154 -325v2004h221v-2004h-221z" />
<glyph unicode="}" horiz-adv-x="709" d="M33 -136h97q51 0 82 34.5t31 93.5v402q0 126 38.5 191.5t130.5 90.5q-92 23 -130.5 86.5t-38.5 178.5v403q0 70 -30.5 107.5t-82.5 37.5h-97v189h127q138 0 217 -79.5t79 -205.5v-453q0 -67 34.5 -118.5t100.5 -51.5h45v-188h-45q-65 0 -100 -48t-35 -106v-452 q0 -137 -78.5 -219.5t-217.5 -82.5h-127v190z" />
<glyph unicode="~" horiz-adv-x="984" d="M91 484q39 69 104.5 117.5t147.5 48.5q63 0 159 -36.5t140 -36.5q78 0 156 78l94 -104q-38 -67 -103.5 -115t-147.5 -48q-63 0 -159 36.5t-140 36.5q-78 0 -156 -78z" />
<glyph unicode="&#xa1;" horiz-adv-x="441" d="M92 892q0 60 33.5 92t94.5 32q62 0 95 -32t33 -92q0 -61 -33 -93t-95 -32q-61 0 -94.5 32.5t-33.5 92.5zM93 -358l33 974h189l33 -974h-255z" />
<glyph unicode="&#xa2;" horiz-adv-x="1007" d="M166 497v352q0 147 92 240t237 118l-11 270h215l-11 -267q93 -9 171 -35l-26 -181q-116 33 -215 33q-98 0 -161.5 -52.5t-63.5 -141.5v-321q0 -86 64.5 -135t172.5 -49q106 0 224 31l19 -178q-82 -29 -198 -38l11 -266h-215l11 274q-138 27 -227 118.5t-89 227.5z" />
<glyph unicode="&#xa3;" horiz-adv-x="1186" d="M145 -20v194q91 0 134 42.5t43 139.5v240h-157v159h157v197q0 138 61 235t159.5 142t223.5 45q136 0 272 -35l-23 -198q-117 28 -234 28q-112 0 -171 -61t-59 -177v-176h369v-159h-369v-250q0 -108 -61 -172h560v-194h-905z" />
<glyph unicode="&#xa4;" horiz-adv-x="1310" d="M100 1111l132 120l202 -189q98 54 221 54t221 -53l202 188l132 -119l-182 -210q54 -89 54 -202v-44q0 -119 -58 -208l185 -214l-132 -119l-207 196q-96 -51 -215 -51t-214 50l-208 -194l-132 118l184 214q-57 90 -57 208v44q0 113 54 202zM438 666q0 -99 58 -160t159 -61 q102 0 159.5 61t57.5 160v24q0 99 -57.5 160t-159.5 61q-101 0 -159 -61t-58 -160v-24z" />
<glyph unicode="&#xa5;" horiz-adv-x="1288" d="M117 1354h242l283 -512l287 512h242l-278 -474h190v-148h-880v148h189zM228 472v148h830v-148h-298v-472h-232v472h-300z" />
<glyph unicode="&#xa6;" horiz-adv-x="529" d="M154 -324v782h221v-782h-221zM154 897v782h221v-782h-221z" />
<glyph unicode="&#xa7;" horiz-adv-x="1293" d="M133 1136q0 212 157 337.5t418 125.5q229 0 445 -87l-40 -177q-164 55 -300 69q-69 -65 -69 -160q0 -106 86 -257l185 -331q72 -128 108.5 -227.5t36.5 -209.5q0 -212 -157 -337.5t-418 -125.5q-227 0 -445 88l40 177q149 -55 300 -70q69 66 69 160q0 105 -85 258 l-186 331q-72 128 -108.5 227t-36.5 209zM345 1129q0 -79 29 -156.5t94 -190.5l210 -365q85 -149 85 -265q0 -119 -82 -198q267 34 267 273q0 79 -29 156t-94 190l-210 365q-85 149 -85 265q0 120 81 198q-266 -34 -266 -272z" />
<glyph unicode="&#xa8;" horiz-adv-x="830" d="M88 1287q0 60 33.5 92t94.5 32q62 0 95 -32t33 -92q0 -61 -33 -93t-95 -32q-61 0 -94.5 32.5t-33.5 92.5zM486 1287q0 60 33 92t95 32q61 0 94.5 -32t33.5 -92t-33.5 -92.5t-94.5 -32.5q-62 0 -95 32t-33 93z" />
<glyph unicode="&#xa9;" horiz-adv-x="1568" d="M88 676q0 145 53.5 274.5t146 222.5t221 147t273.5 54t274.5 -54t222.5 -147t147 -222.5t54 -274.5t-54 -274t-147 -221.5t-222.5 -146.5t-274.5 -54t-273.5 54t-221 146.5t-146 221.5t-53.5 274zM244 676q0 -113 41.5 -213t113 -172t171.5 -114t212 -42q151 0 275.5 71 t196 195.5t71.5 274.5q0 151 -71.5 275.5t-196 196t-275.5 71.5q-150 0 -273.5 -71.5t-194 -196t-70.5 -275.5zM448 677q0 40 1 60q3 153 102 238t249 85q91 0 169 -26l-21 -155q-67 20 -138 20q-86 0 -131.5 -50t-45.5 -139v-70q0 -89 48 -137.5t135 -48.5q83 0 145 17 l13 -153q-79 -24 -175 -24q-155 0 -251.5 82t-98.5 241q-1 19 -1 60z" />
<glyph unicode="&#xaa;" horiz-adv-x="757" d="M53 845q0 103 73 154.5t183 51.5h136v43q0 52 -27.5 79.5t-96.5 27.5q-100 0 -213 -33l-22 154q114 43 256 43q156 0 223 -61t67 -205v-252q0 -47 43 -47q30 0 51 6l3 -145q-48 -20 -108 -20q-45 0 -83.5 20t-59.5 55q-88 -75 -201 -75q-99 0 -161.5 51.5t-62.5 152.5z M236 854q0 -34 22.5 -51t59.5 -17q60 0 127 40v100h-117q-92 0 -92 -72z" />
<glyph unicode="&#xab;" horiz-adv-x="983" d="M93 498l256 449l174 -76l-201 -373l201 -373l-174 -76zM503 498l248 446l174 -74l-195 -372l195 -372l-174 -74z" />
<glyph unicode="&#xac;" horiz-adv-x="1117" d="M141 580v194h835v-437h-204v243h-631z" />
<glyph unicode="&#xad;" horiz-adv-x="761" d="M91 408v179h579v-179h-579z" />
<glyph unicode="&#xae;" horiz-adv-x="1568" d="M88 676q0 145 53.5 274.5t146 222.5t221 147t273.5 54t274.5 -54t222.5 -147t147 -222.5t54 -274.5t-54 -274t-147 -221.5t-222.5 -146.5t-274.5 -54t-273.5 54t-221 146.5t-146 221.5t-53.5 274zM244 676q0 -113 41.5 -213t113 -172t171.5 -114t212 -42q151 0 275.5 71 t196 195.5t71.5 274.5q0 151 -71.5 275.5t-196 196t-275.5 71.5q-150 0 -273.5 -71.5t-194 -196t-70.5 -275.5zM505 306v742h296q121 0 200.5 -61.5t79.5 -175.5v-37q0 -75 -41 -128t-109 -78l159 -262h-183l-134 235h-100v-235h-168zM673 676h107q63 0 98 26t35 75v23 q0 51 -34.5 79.5t-98.5 28.5h-107v-232z" />
<glyph unicode="&#xaf;" horiz-adv-x="758" d="M88 1195v177h582v-177h-582z" />
<glyph unicode="&#xb0;" horiz-adv-x="780" d="M75 1013v76q0 135 90.5 209t223.5 74q134 0 225 -74t91 -209v-76q0 -135 -91 -209t-225 -74q-133 0 -223.5 74t-90.5 209zM260 1025q0 -61 35 -96.5t94 -35.5t95 35.5t36 96.5v53q0 61 -36 96.5t-95 35.5t-94 -35t-35 -97v-53z" />
<glyph unicode="&#xb1;" horiz-adv-x="1060" d="M149 764v193h276v296h217v-296h276v-193h-276v-296h-217v296h-276zM186 124v190h697v-190h-697z" />
<glyph unicode="&#xb2;" horiz-adv-x="638" d="M47 651v150q170 107 215 142q108 84 108 154q0 50 -36.5 74t-98.5 24q-60 0 -164 -20l-20 162q112 27 216 27q132 0 219.5 -64.5t87.5 -195.5q0 -155 -250 -293h275v-160h-552z" />
<glyph unicode="&#xb3;" horiz-adv-x="616" d="M45 663l18 156q77 -18 158 -18q131 0 131 68q0 36 -32 54t-79 18h-125v126h125q99 0 99 66q0 73 -118 73q-78 0 -156 -17l-19 148q96 27 197 27q142 0 220.5 -55t78.5 -153q0 -104 -102 -146q53 -18 83.5 -59.5t30.5 -104.5q0 -100 -81.5 -152.5t-234.5 -52.5 q-104 0 -194 22z" />
<glyph unicode="&#xb4;" horiz-adv-x="622" d="M88 1159l262 339l184 -109l-322 -300z" />
<glyph unicode="&#xb5;" horiz-adv-x="1118" d="M-59 -318q49 33 80 59.5t61.5 65t44.5 88.5t14 113v988h225v-665q0 -143 133 -143q53 0 118 24t125 67v717h225v-996h-190l-14 113q-147 -119 -280 -122q-66 -3 -117 20q-2 -182 -79.5 -287t-244.5 -192z" />
<glyph unicode="&#xb6;" horiz-adv-x="1177" d="M92 822v79q0 208 130.5 330.5t343.5 122.5h73v-981h-73q-213 0 -343.5 120.5t-130.5 328.5zM583 -253q49 33 80.5 60t61 65.5t43.5 88.5t14 113v1280h228v-1295q0 -88 -22 -158t-67.5 -124.5t-101 -95.5t-135.5 -83z" />
<glyph unicode="&#xb7;" horiz-adv-x="432" d="M88 498q0 60 33.5 92t94.5 32q62 0 95 -32t33 -92q0 -61 -33 -93t-95 -32q-61 0 -94.5 32.5t-33.5 92.5z" />
<glyph unicode="&#xb8;" horiz-adv-x="584" d="M88 -454l18 141q33 -11 92 -11q117 0 117 68q0 32 -27 49.5t-74 17.5h-61l50 209h122l-16 -124q86 -9 136.5 -54t50.5 -127q0 -89 -79.5 -136t-195.5 -47q-77 0 -133 14z" />
<glyph unicode="&#xb9;" horiz-adv-x="603" d="M38 1283l236 71h148v-544h162v-159h-532v159h179v360l-181 -38z" />
<glyph unicode="&#xba;" horiz-adv-x="808" d="M72 924v157q0 134 95.5 208.5t235.5 74.5t236.5 -72.5t96.5 -202.5v-157q0 -93 -47 -160.5t-121 -99t-165 -31.5q-140 0 -235.5 74.5t-95.5 208.5zM258 935q0 -61 39.5 -96t105.5 -35t106.5 37.5t40.5 102.5v134q0 58 -40.5 90.5t-106.5 32.5t-105.5 -35t-39.5 -96v-135z " />
<glyph unicode="&#xbb;" horiz-adv-x="983" d="M58 125l195 373l-195 372l174 74l248 -446l-248 -446zM460 125l202 373l-202 372l174 77l256 -449l-256 -449z" />
<glyph unicode="&#xbf;" horiz-adv-x="772" d="M43 -45q-1 68 18 136q21 68 70 135.5t94.5 112t84 99t43.5 102.5q15 36 20 77h180q2 -5 3.5 -34t0.5 -55q-1 -48 -17.5 -92.5t-41.5 -79.5t-55 -69t-60 -67t-54.5 -66.5t-40 -74t-15.5 -84.5q0 -88 56.5 -127.5t149.5 -39.5q116 0 246 48l40 -193q-153 -61 -327 -61 q-77 0 -145 19.5t-124 58t-89.5 104.5t-36.5 151zM331 892q0 60 33 92t95 32q61 0 94.5 -32t33.5 -92t-33.5 -92.5t-94.5 -32.5q-62 0 -95 32t-33 93z" />
<glyph unicode="&#xc0;" horiz-adv-x="1209" d="M29 0l409 1354h333l409 -1354h-246l-90 315h-479l-90 -315h-246zM295 1748l183 109l262 -339l-124 -71zM414 504h382l-192 670z" />
<glyph unicode="&#xc1;" horiz-adv-x="1209" d="M29 0l409 1354h333l409 -1354h-246l-90 315h-479l-90 -315h-246zM414 504h382l-192 670zM442 1518l262 339l183 -109l-322 -301z" />
<glyph unicode="&#xc2;" horiz-adv-x="1209" d="M29 0l409 1354h333l409 -1354h-246l-90 315h-479l-90 -315h-246zM289 1484l213 340h204l213 -340l-198 -16l-117 209l-117 -209zM414 504h382l-192 670z" />
<glyph unicode="&#xc3;" horiz-adv-x="1209" d="M29 0l409 1354h333l409 -1354h-246l-90 315h-479l-90 -315h-246zM266 1587q29 71 86 124t134 53q44 0 121.5 -30.5t111.5 -30.5q60 0 115 69l109 -78q-29 -70 -86 -123.5t-133 -53.5q-45 0 -122.5 30.5t-111.5 30.5q-58 0 -115 -68zM414 504h382l-192 670z" />
<glyph unicode="&#xc4;" horiz-adv-x="1209" d="M29 0l409 1354h333l409 -1354h-246l-90 315h-479l-90 -315h-246zM277 1645q0 60 33 92t94 32q62 0 95 -32t33 -92t-33 -92t-95 -32q-61 0 -94 32t-33 92zM414 504h382l-192 670zM676 1645q0 60 33 92t95 32q61 0 94.5 -32t33.5 -92t-33.5 -92t-94.5 -32t-94.5 32 t-33.5 92z" />
<glyph unicode="&#xc5;" horiz-adv-x="1209" d="M29 0l409 1354h333l409 -1354h-246l-90 315h-479l-90 -315h-246zM362 1661q0 99 67.5 161.5t175.5 62.5q106 0 174 -61.5t68 -158.5q0 -99 -68 -161t-176 -62q-106 0 -173.5 61.5t-67.5 157.5zM414 504h382l-192 670zM509 1665q0 -39 27 -64.5t68 -25.5q42 0 69 24.5 t27 62.5q0 40 -27 66t-69 26q-41 0 -68 -25.5t-27 -63.5z" />
<glyph unicode="&#xc6;" horiz-adv-x="1634" d="M29 0l603 1354h925v-201h-581l70 -374h491v-194h-462l72 -384h431v-201h-633l-53 306h-485l-132 -306h-246zM482 496h383l-109 631z" />
<glyph unicode="&#xc7;" horiz-adv-x="972" d="M106 428v481q0 111 40.5 200.5t109.5 146.5t157 87.5t187 30.5q97 0 181.5 -18.5t124.5 -36.5l-32 -194q-152 46 -262 46q-119 0 -197 -76t-78 -204v-445q0 -123 79.5 -193.5t210.5 -70.5q132 0 273 44l25 -190q-149 -56 -326 -56l-11 -84q87 -9 137 -54t50 -127 q0 -89 -79.5 -136t-195.5 -47q-76 0 -132 14l18 141q33 -11 91 -11q117 0 117 68q0 32 -27 49.5t-74 17.5h-60l42 181q-160 33 -264.5 149t-104.5 287z" />
<glyph unicode="&#xc8;" horiz-adv-x="1028" d="M153 0v1354h798v-201h-566v-374h545v-194h-545v-384h586v-201h-818zM271 1748l184 109l262 -339l-124 -71z" />
<glyph unicode="&#xc9;" horiz-adv-x="1028" d="M153 0v1354h798v-201h-566v-374h545v-194h-545v-384h586v-201h-818zM413 1518l262 339l184 -109l-322 -301z" />
<glyph unicode="&#xca;" horiz-adv-x="1028" d="M153 0v1354h798v-201h-566v-374h545v-194h-545v-384h586v-201h-818zM232 1484l213 340h205l213 -340l-198 -16l-118 209l-117 -209z" />
<glyph unicode="&#xcb;" horiz-adv-x="1028" d="M153 0v1354h798v-201h-566v-374h545v-194h-545v-384h586v-201h-818zM227 1645q0 60 33 92t94 32q62 0 95 -32t33 -92t-33 -92t-95 -32q-61 0 -94 32t-33 92zM626 1645q0 60 33 92t95 32q61 0 94.5 -32t33.5 -92t-33.5 -92t-94.5 -32t-94.5 32t-33.5 92z" />
<glyph unicode="&#xcc;" horiz-adv-x="537" d="M-29 1748l183 109l262 -339l-123 -71zM153 0v1354h231v-1354h-231z" />
<glyph unicode="&#xcd;" horiz-adv-x="537" d="M124 1518l262 339l184 -109l-322 -301zM153 0v1354h231v-1354h-231z" />
<glyph unicode="&#xce;" horiz-adv-x="537" d="M-47 1484l213 340h205l213 -340l-198 -16l-117 209l-118 -209zM153 0v1354h231v-1354h-231z" />
<glyph unicode="&#xcf;" horiz-adv-x="537" d="M-51 1645q0 60 33.5 92t94.5 32q62 0 95 -32t33 -92t-33 -92t-95 -32q-61 0 -94.5 32t-33.5 92zM153 0v1354h231v-1354h-231zM332 1645q0 60 33.5 92t94.5 32t94.5 -32t33.5 -92t-33.5 -92t-94.5 -32t-94.5 32t-33.5 92z" />
<glyph unicode="&#xd0;" horiz-adv-x="1228" d="M41 603v148h129v603h454q138 0 250.5 -53t179.5 -153.5t67 -231.5v-481q0 -110 -38.5 -194.5t-107 -136.5t-157 -78t-194.5 -26h-454v603h-129zM401 189h208q138 0 210 67t72 189v445q0 119 -72 197t-210 78h-208v-414h272v-148h-272v-414z" />
<glyph unicode="&#xd1;" horiz-adv-x="1317" d="M153 0v1354h236l547 -962v962h228v-1354h-236l-547 962v-962h-228zM319 1587q29 71 86 124t134 53q44 0 121.5 -30.5t111.5 -30.5q58 0 115 69l109 -78q-29 -70 -86.5 -123.5t-133.5 -53.5q-44 0 -121.5 30.5t-111.5 30.5q-60 0 -115 -68z" />
<glyph unicode="&#xd2;" d="M106 435v484q0 146 67.5 250.5t179.5 154.5t255 50t255 -50t179.5 -154.5t67.5 -250.5v-484q0 -146 -67.5 -250.5t-179.5 -154.5t-255 -50t-255 50t-179.5 154.5t-67.5 250.5zM333 1748l184 109l262 -339l-124 -71zM337 467q0 -136 68.5 -216.5t202.5 -80.5q133 0 202 80 t69 217v420q0 136 -69 216t-202 80q-130 0 -200.5 -71t-70.5 -198v-447z" />
<glyph unicode="&#xd3;" d="M106 435v484q0 146 67.5 250.5t179.5 154.5t255 50t255 -50t179.5 -154.5t67.5 -250.5v-484q0 -146 -67.5 -250.5t-179.5 -154.5t-255 -50t-255 50t-179.5 154.5t-67.5 250.5zM337 467q0 -136 68.5 -216.5t202.5 -80.5q133 0 202 80t69 217v420q0 136 -69 216t-202 80 q-130 0 -200.5 -71t-70.5 -198v-447zM450 1518l262 339l184 -109l-322 -301z" />
<glyph unicode="&#xd4;" d="M106 435v484q0 146 67.5 250.5t179.5 154.5t255 50t255 -50t179.5 -154.5t67.5 -250.5v-484q0 -146 -67.5 -250.5t-179.5 -154.5t-255 -50t-255 50t-179.5 154.5t-67.5 250.5zM293 1484l213 340h204l213 -340l-197 -16l-118 209l-117 -209zM337 467q0 -136 68.5 -216.5 t202.5 -80.5q133 0 202 80t69 217v420q0 136 -69 216t-202 80q-130 0 -200.5 -71t-70.5 -198v-447z" />
<glyph unicode="&#xd5;" d="M106 435v484q0 146 67.5 250.5t179.5 154.5t255 50t255 -50t179.5 -154.5t67.5 -250.5v-484q0 -146 -67.5 -250.5t-179.5 -154.5t-255 -50t-255 50t-179.5 154.5t-67.5 250.5zM269 1587q29 71 86 124t134 53q44 0 121.5 -30.5t112.5 -30.5q59 0 114 69l109 -78 q-29 -70 -86 -123.5t-133 -53.5q-45 0 -122.5 30.5t-111.5 30.5q-58 0 -115 -68zM337 467q0 -136 68.5 -216.5t202.5 -80.5q133 0 202 80t69 217v420q0 136 -69 216t-202 80q-130 0 -200.5 -71t-70.5 -198v-447z" />
<glyph unicode="&#xd6;" d="M106 435v484q0 146 67.5 250.5t179.5 154.5t255 50t255 -50t179.5 -154.5t67.5 -250.5v-484q0 -146 -67.5 -250.5t-179.5 -154.5t-255 -50t-255 50t-179.5 154.5t-67.5 250.5zM281 1645q0 60 33 92t95 32q61 0 94.5 -32t33.5 -92t-33.5 -92t-94.5 -32q-62 0 -95 32 t-33 92zM337 467q0 -136 68.5 -216.5t202.5 -80.5q133 0 202 80t69 217v420q0 136 -69 216t-202 80q-130 0 -200.5 -71t-70.5 -198v-447zM680 1645q0 60 33 92t95 32q61 0 94.5 -32t33.5 -92t-33.5 -92t-94.5 -32t-94.5 32t-33.5 92z" />
<glyph unicode="&#xd7;" horiz-adv-x="1086" d="M141 422l259 259l-249 250l138 137l249 -249l260 260l147 -147l-260 -260l249 -249l-138 -138l-249 250l-259 -260z" />
<glyph unicode="&#xd8;" d="M106 435v484q0 146 67.5 250.5t179.5 154.5t255 50q104 0 195 -32l107 251h160l-135 -315q175 -120 175 -359v-484q0 -146 -67.5 -250.5t-179.5 -154.5t-255 -50q-108 0 -199 32l-107 -250h-160l135 315q-171 120 -171 358zM337 467q0 -136 68.5 -216.5t202.5 -80.5 q133 0 202 80t69 217v420q0 136 -69 216t-202 80q-130 0 -200.5 -71t-70.5 -198v-447z" />
<glyph unicode="&#xd9;" horiz-adv-x="1260" d="M143 411v943h231v-943q0 -106 70.5 -171t185.5 -65q116 0 186 65t70 171v943h231v-943q0 -199 -133 -315t-354 -116t-354 116t-133 315zM304 1748l184 109l262 -339l-124 -71z" />
<glyph unicode="&#xda;" horiz-adv-x="1260" d="M143 411v943h231v-943q0 -106 70.5 -171t185.5 -65q116 0 186 65t70 171v943h231v-943q0 -199 -133 -315t-354 -116t-354 116t-133 315zM493 1518l262 339l183 -109l-322 -301z" />
<glyph unicode="&#xdb;" horiz-adv-x="1260" d="M143 411v943h231v-943q0 -106 70.5 -171t185.5 -65q116 0 186 65t70 171v943h231v-943q0 -199 -133 -315t-354 -116t-354 116t-133 315zM315 1484l213 340h204l213 -340l-197 -16l-118 209l-117 -209z" />
<glyph unicode="&#xdc;" horiz-adv-x="1260" d="M143 411v943h231v-943q0 -106 70.5 -171t185.5 -65q116 0 186 65t70 171v943h231v-943q0 -199 -133 -315t-354 -116t-354 116t-133 315zM303 1645q0 60 33 92t95 32q61 0 94 -32t33 -92t-33 -92t-94 -32q-62 0 -95 32t-33 92zM702 1645q0 60 33 92t95 32q61 0 94.5 -32 t33.5 -92t-33.5 -92t-94.5 -32t-94.5 32t-33.5 92z" />
<glyph unicode="&#xdd;" horiz-adv-x="1133" d="M37 1354h241l289 -638l288 638h241l-414 -864v-490h-231v490zM444 1518l262 339l183 -109l-321 -301z" />
<glyph unicode="&#xde;" horiz-adv-x="1133" d="M153 0v1354h231v-221h223q126 0 227 -44.5t164.5 -138t63.5 -223.5v-101q0 -99 -36.5 -177.5t-99.5 -127.5t-144.5 -74.5t-174.5 -25.5h-223v-221h-231zM384 410h210q113 0 175.5 62t62.5 177v65q0 111 -63 170.5t-175 59.5h-210v-534z" />
<glyph unicode="&#xdf;" horiz-adv-x="1195" d="M143 0v1114q0 153 110.5 251.5t272.5 98.5q208 0 328.5 -92.5t120.5 -234.5q0 -77 -29.5 -132t-103.5 -137q-50 -55 -68 -75.5t-35 -49.5t-17 -51q0 -45 32 -68.5t133 -57.5q146 -49 205 -115t59 -184q0 -141 -92.5 -214t-265.5 -73q-96 0 -180.5 15.5t-131.5 35.5 l31 171q42 -16 111.5 -30.5t135.5 -14.5q183 0 183 107q0 55 -44.5 83t-169.5 68q-112 35 -166.5 94t-54.5 158q0 31 8 60.5t15 47.5t32.5 51.5t34.5 44t47 53.5q60 68 89.5 113t29.5 83q0 66 -62.5 110.5t-158.5 44.5q-80 0 -127.5 -47.5t-47.5 -136.5v-1091h-224z" />
<glyph unicode="&#xe0;" horiz-adv-x="1005" d="M67 260q0 143 100 218.5t250 75.5h197v90q0 88 -42.5 133t-150.5 45q-123 0 -276 -46l-27 184q171 56 333 56q206 0 293.5 -93t87.5 -296v-377q0 -81 64 -81q32 0 64 8l4 -172q-56 -25 -135 -25q-125 0 -179 101q-139 -101 -284 -101q-135 0 -217 71t-82 209zM186 1389 l184 109l262 -339l-124 -70zM279 273q0 -62 37.5 -95.5t93.5 -33.5q102 0 204 67v202h-177q-76 0 -117 -36t-41 -104z" />
<glyph unicode="&#xe1;" horiz-adv-x="1005" d="M67 260q0 143 100 218.5t250 75.5h197v90q0 88 -42.5 133t-150.5 45q-123 0 -276 -46l-27 184q171 56 333 56q206 0 293.5 -93t87.5 -296v-377q0 -81 64 -81q32 0 64 8l4 -172q-56 -25 -135 -25q-125 0 -179 101q-139 -101 -284 -101q-135 0 -217 71t-82 209zM279 273 q0 -62 37.5 -95.5t93.5 -33.5q102 0 204 67v202h-177q-76 0 -117 -36t-41 -104zM301 1159l262 339l184 -109l-322 -300z" />
<glyph unicode="&#xe2;" horiz-adv-x="1005" d="M67 260q0 143 100 218.5t250 75.5h197v90q0 88 -42.5 133t-150.5 45q-123 0 -276 -46l-27 184q171 56 333 56q206 0 293.5 -93t87.5 -296v-377q0 -81 64 -81q32 0 64 8l4 -172q-56 -25 -135 -25q-125 0 -179 101q-139 -101 -284 -101q-135 0 -217 71t-82 209zM149 1126 l213 340h204l213 -340l-198 -16l-117 209l-117 -209zM279 273q0 -62 37.5 -95.5t93.5 -33.5q102 0 204 67v202h-177q-76 0 -117 -36t-41 -104z" />
<glyph unicode="&#xe3;" horiz-adv-x="1005" d="M67 260q0 143 100 218.5t250 75.5h197v90q0 88 -42.5 133t-150.5 45q-123 0 -276 -46l-27 184q171 56 333 56q206 0 293.5 -93t87.5 -296v-377q0 -81 64 -81q32 0 64 8l4 -172q-56 -25 -135 -25q-125 0 -179 101q-139 -101 -284 -101q-135 0 -217 71t-82 209zM104 1229 q29 70 86 123.5t133 53.5q45 0 122.5 -30.5t111.5 -30.5q58 0 115 69l109 -78q-29 -70 -86.5 -123.5t-133.5 -53.5q-44 0 -121.5 30.5t-111.5 30.5q-60 0 -115 -68zM279 273q0 -62 37.5 -95.5t93.5 -33.5q102 0 204 67v202h-177q-76 0 -117 -36t-41 -104z" />
<glyph unicode="&#xe4;" horiz-adv-x="1005" d="M67 260q0 143 100 218.5t250 75.5h197v90q0 88 -42.5 133t-150.5 45q-123 0 -276 -46l-27 184q171 56 333 56q206 0 293.5 -93t87.5 -296v-377q0 -81 64 -81q32 0 64 8l4 -172q-56 -25 -135 -25q-125 0 -179 101q-139 -101 -284 -101q-135 0 -217 71t-82 209zM127 1287 q0 60 33 92t94 32q62 0 95 -32t33 -92q0 -61 -33 -93t-95 -32q-61 0 -94 32t-33 93zM279 273q0 -62 37.5 -95.5t93.5 -33.5q102 0 204 67v202h-177q-76 0 -117 -36t-41 -104zM526 1287q0 60 33 92t95 32q61 0 94.5 -32t33.5 -92t-33.5 -92.5t-94.5 -32.5t-94.5 32.5 t-33.5 92.5z" />
<glyph unicode="&#xe5;" horiz-adv-x="1005" d="M67 260q0 143 100 218.5t250 75.5h197v90q0 88 -42.5 133t-150.5 45q-123 0 -276 -46l-27 184q171 56 333 56q206 0 293.5 -93t87.5 -296v-377q0 -81 64 -81q32 0 64 8l4 -172q-56 -25 -135 -25q-125 0 -179 101q-139 -101 -284 -101q-135 0 -217 71t-82 209zM210 1303 q0 99 67.5 161.5t175.5 62.5q107 0 175 -61.5t68 -158.5q0 -99 -68 -161t-177 -62q-106 0 -173.5 61t-67.5 158zM279 273q0 -62 37.5 -95.5t93.5 -33.5q102 0 204 67v202h-177q-76 0 -117 -36t-41 -104zM357 1307q0 -39 27 -65t68 -26q42 0 69.5 25t27.5 63q0 40 -27.5 65.5 t-68.5 25.5t-68.5 -25t-27.5 -63z" />
<glyph unicode="&#xe6;" horiz-adv-x="1519" d="M67 263q0 142 100 218.5t250 76.5h197v86q0 88 -42.5 133t-150.5 45q-123 0 -276 -46l-27 184q171 56 333 56q203 0 282 -109q109 109 285 109q177 0 290.5 -110t113.5 -304v-80q0 -20 -1 -54t-1 -45h-591v-36q0 -105 62.5 -160.5t181.5 -55.5q144 0 311 40l19 -181 q-167 -50 -351 -50q-229 0 -350 141q-62 -56 -152 -98.5t-184 -42.5q-135 0 -217 72.5t-82 210.5zM279 275q0 -64 39 -97t98 -33q111 0 223 87q-25 67 -25 150l-4 35h-173q-75 0 -116.5 -36.5t-41.5 -105.5zM829 564h377v47q0 223 -188 223q-189 0 -189 -219v-51z" />
<glyph unicode="&#xe7;" horiz-adv-x="860" d="M105 393v223q4 189 122.5 294.5t303.5 105.5q129 0 252 -35l-28 -188l-17 4q-16 4 -34 8t-43 8.5t-53.5 7t-54.5 2.5q-109 0 -167.5 -64t-58.5 -176v-174q0 -114 61.5 -175t173.5 -61q111 0 211 25l17 -185q-113 -33 -251 -33q-12 0 -17 1l-11 -85q86 -9 136.5 -54 t50.5 -127q0 -89 -79.5 -136t-195.5 -47q-77 0 -133 14l18 141q33 -11 92 -11q53 0 85 17t32 51q0 32 -27 49.5t-74 17.5h-61l44 185q-137 33 -215.5 134t-78.5 263z" />
<glyph unicode="&#xe8;" horiz-adv-x="1007" d="M96 390v213q0 194 115 303.5t295 109.5q177 0 290.5 -110t113.5 -304q0 -33 -1 -90.5t-1 -79.5h-591v-45q0 -105 62.5 -160.5t181.5 -55.5q144 0 311 40l19 -181q-167 -50 -351 -50q-198 0 -321 108t-123 302zM208 1389l184 109l262 -339l-124 -70zM317 572h377v39 q0 223 -188 223q-189 0 -189 -219v-43z" />
<glyph unicode="&#xe9;" horiz-adv-x="1007" d="M96 390v213q0 194 115 303.5t295 109.5q177 0 290.5 -110t113.5 -304q0 -33 -1 -90.5t-1 -79.5h-591v-45q0 -105 62.5 -160.5t181.5 -55.5q144 0 311 40l19 -181q-167 -50 -351 -50q-198 0 -321 108t-123 302zM317 572h377v39q0 223 -188 223q-189 0 -189 -219v-43z M342 1159l262 339l184 -109l-322 -300z" />
<glyph unicode="&#xea;" horiz-adv-x="1007" d="M96 390v213q0 194 115 303.5t295 109.5q177 0 290.5 -110t113.5 -304q0 -33 -1 -90.5t-1 -79.5h-591v-45q0 -105 62.5 -160.5t181.5 -55.5q144 0 311 40l19 -181q-167 -50 -351 -50q-198 0 -321 108t-123 302zM188 1126l213 340h205l212 -340l-197 -16l-118 209 l-117 -209zM317 572h377v39q0 223 -188 223q-189 0 -189 -219v-43z" />
<glyph unicode="&#xeb;" horiz-adv-x="1007" d="M96 390v213q0 194 115 303.5t295 109.5q177 0 290.5 -110t113.5 -304q0 -33 -1 -90.5t-1 -79.5h-591v-45q0 -105 62.5 -160.5t181.5 -55.5q144 0 311 40l19 -181q-167 -50 -351 -50q-198 0 -321 108t-123 302zM176 1287q0 60 33 92t95 32q61 0 94.5 -32t33.5 -92 t-33.5 -92.5t-94.5 -32.5q-62 0 -95 32t-33 93zM317 572h377v39q0 223 -188 223q-189 0 -189 -219v-43zM575 1287q0 60 33 92t95 32q61 0 94.5 -32t33.5 -92t-33.5 -92.5t-94.5 -32.5t-94.5 32.5t-33.5 92.5z" />
<glyph unicode="&#xec;" horiz-adv-x="494" d="M-53 1389l184 109l262 -339l-124 -70zM135 0v996h224v-996h-224z" />
<glyph unicode="&#xed;" horiz-adv-x="527" d="M118 1159l262 339l184 -109l-322 -300zM151 0v996h225v-996h-225z" />
<glyph unicode="&#xee;" horiz-adv-x="494" d="M-68 1126l213 340h204l213 -340l-198 -16l-117 209l-118 -209zM135 0v996h224v-996h-224z" />
<glyph unicode="&#xef;" horiz-adv-x="494" d="M-72 1287q0 60 33 92t95 32q61 0 94 -32t33 -92q0 -61 -33 -93t-94 -32q-62 0 -95 32t-33 93zM135 0v996h224v-996h-224zM310 1287q0 60 33.5 92t94.5 32q62 0 95 -32t33 -92q0 -61 -33 -93t-95 -32q-61 0 -94.5 32.5t-33.5 92.5z" />
<glyph unicode="&#xf0;" horiz-adv-x="1140" d="M96 392v185q0 185 118 283.5t308 98.5q156 0 259 -98v80q0 188 -81 268l-93 -160l-127 77l87 149q-38 6 -81 3q-138 -3 -244 -48l-38 177q153 57 309 57q85 0 161 -19l96 160l127 -77l-84 -140q189 -124 189 -428v-570q0 -196 -123 -303t-330 -107q-218 0 -335.5 111 t-117.5 301zM322 370q0 -95 60 -150t167 -55t169.5 58t62.5 159v265q-84 125 -225 125q-115 0 -174.5 -53.5t-59.5 -154.5v-194z" />
<glyph unicode="&#xf1;" horiz-adv-x="1126" d="M151 0v996h190l14 -114q186 134 351 134q133 0 206 -73t73 -210v-733h-225v665q0 143 -137 143q-53 0 -119.5 -24.5t-127.5 -67.5v-716h-225zM224 1229q29 70 86 123.5t133 53.5q45 0 122.5 -30.5t111.5 -30.5q58 0 115 69l109 -78q-29 -70 -86.5 -123.5t-133.5 -53.5 q-44 0 -121.5 30.5t-111.5 30.5q-60 0 -115 -68z" />
<glyph unicode="&#xf2;" horiz-adv-x="1088" d="M105 385v226q0 130 59 223t157 137.5t223 44.5t223 -44.5t157 -137.5t59 -223v-226q0 -130 -59 -223t-157 -137.5t-223 -44.5t-223 44.5t-157 137.5t-59 223zM266 1389l184 109l262 -339l-124 -70zM329 394q0 -106 55.5 -166.5t159.5 -60.5q103 0 159 60.5t56 166.5v208 q0 105 -56 166t-159 61q-102 0 -158.5 -58.5t-56.5 -161.5v-215z" />
<glyph unicode="&#xf3;" horiz-adv-x="1088" d="M105 385v226q0 130 59 223t157 137.5t223 44.5t223 -44.5t157 -137.5t59 -223v-226q0 -130 -59 -223t-157 -137.5t-223 -44.5t-223 44.5t-157 137.5t-59 223zM329 394q0 -106 55.5 -166.5t159.5 -60.5q103 0 159 60.5t56 166.5v208q0 105 -56 166t-159 61 q-102 0 -158.5 -58.5t-56.5 -161.5v-215zM393 1159l262 339l184 -109l-322 -300z" />
<glyph unicode="&#xf4;" horiz-adv-x="1088" d="M105 385v226q0 130 59 223t157 137.5t223 44.5t223 -44.5t157 -137.5t59 -223v-226q0 -130 -59 -223t-157 -137.5t-223 -44.5t-223 44.5t-157 137.5t-59 223zM229 1126l213 340h204l213 -340l-198 -16l-117 209l-117 -209zM329 394q0 -106 55.5 -166.5t159.5 -60.5 q103 0 159 60.5t56 166.5v208q0 105 -56 166t-159 61q-102 0 -158.5 -58.5t-56.5 -161.5v-215z" />
<glyph unicode="&#xf5;" horiz-adv-x="1088" d="M105 385v226q0 130 59 223t157 137.5t223 44.5t223 -44.5t157 -137.5t59 -223v-226q0 -130 -59 -223t-157 -137.5t-223 -44.5t-223 44.5t-157 137.5t-59 223zM205 1229q29 70 86 123.5t134 53.5q44 0 121.5 -30.5t111.5 -30.5q60 0 115 69l109 -78q-29 -70 -86 -123.5 t-134 -53.5q-44 0 -121.5 30.5t-111.5 30.5q-58 0 -115 -68zM329 394q0 -106 55.5 -166.5t159.5 -60.5q103 0 159 60.5t56 166.5v208q0 105 -56 166t-159 61q-102 0 -158.5 -58.5t-56.5 -161.5v-215z" />
<glyph unicode="&#xf6;" horiz-adv-x="1088" d="M105 385v226q0 130 59 223t157 137.5t223 44.5t223 -44.5t157 -137.5t59 -223v-226q0 -130 -59 -223t-157 -137.5t-223 -44.5t-223 44.5t-157 137.5t-59 223zM216 1287q0 60 33.5 92t94.5 32q62 0 95 -32t33 -92q0 -61 -33 -93t-95 -32q-61 0 -94.5 32.5t-33.5 92.5z M329 394q0 -106 55.5 -166.5t159.5 -60.5q103 0 159 60.5t56 166.5v208q0 105 -56 166t-159 61q-102 0 -158.5 -58.5t-56.5 -161.5v-215zM616 1287q0 60 33 92t95 32q61 0 94.5 -32t33.5 -92t-33.5 -92.5t-94.5 -32.5t-94.5 32.5t-33.5 92.5z" />
<glyph unicode="&#xf7;" horiz-adv-x="1038" d="M141 603v158h764v-158h-764zM395 365q0 61 33 93t95 32q61 0 94.5 -32.5t33.5 -92.5t-33.5 -92t-94.5 -32t-94.5 32t-33.5 92zM395 999q0 60 33 92t95 32q61 0 94.5 -32t33.5 -92t-33.5 -92.5t-94.5 -32.5t-94.5 32.5t-33.5 92.5z" />
<glyph unicode="&#xf8;" horiz-adv-x="1088" d="M105 385v226q0 193 123 299t316 106q76 0 137 -17l100 235h152l-123 -288q173 -107 173 -335v-226q0 -130 -59 -223t-157 -137.5t-223 -44.5q-73 0 -138 18l-99 -236h-151l122 288q-173 105 -173 335zM329 394q0 -106 55.5 -166.5t159.5 -60.5q103 0 159 60.5t56 166.5 v208q0 105 -56 166t-159 61q-102 0 -158.5 -58.5t-56.5 -161.5v-215z" />
<glyph unicode="&#xf9;" horiz-adv-x="1118" d="M141 263v733h225v-665q0 -143 133 -143q53 0 118 24t125 67v717h225v-996h-190l-14 114q-182 -134 -347 -134q-131 0 -203 73t-72 210zM231 1389l183 109l262 -339l-124 -70z" />
<glyph unicode="&#xfa;" horiz-adv-x="1118" d="M141 263v733h225v-665q0 -143 133 -143q53 0 118 24t125 67v717h225v-996h-190l-14 114q-182 -134 -347 -134q-131 0 -203 73t-72 210zM409 1159l262 339l184 -109l-322 -300z" />
<glyph unicode="&#xfb;" horiz-adv-x="1118" d="M141 263v733h225v-665q0 -143 133 -143q53 0 118 24t125 67v717h225v-996h-190l-14 114q-182 -134 -347 -134q-131 0 -203 73t-72 210zM243 1126l213 340h205l213 -340l-198 -16l-118 209l-117 -209z" />
<glyph unicode="&#xfc;" horiz-adv-x="1118" d="M141 263v733h225v-665q0 -143 133 -143q53 0 118 24t125 67v717h225v-996h-190l-14 114q-182 -134 -347 -134q-131 0 -203 73t-72 210zM231 1287q0 60 33 92t95 32q61 0 94.5 -32t33.5 -92t-33.5 -92.5t-94.5 -32.5t-94.5 32.5t-33.5 92.5zM630 1287q0 60 33.5 92 t94.5 32q62 0 95 -32t33 -92q0 -61 -33 -93t-95 -32q-61 0 -94.5 32.5t-33.5 92.5z" />
<glyph unicode="&#xfd;" horiz-adv-x="1024" d="M21 996h237l245 -791l256 791h240l-350 -996l-163 -448h-228l165 448h-68zM389 1159l262 339l184 -109l-322 -300z" />
<glyph unicode="&#xfe;" horiz-adv-x="1109" d="M151 -448v1892h225v-533q139 105 286 105q144 0 243.5 -106t99.5 -288v-228q0 -196 -116.5 -305t-305.5 -109q-100 0 -213 33v-461h-219zM376 203q98 -36 187 -36q217 0 217 228v201q0 225 -185 225q-115 0 -219 -84v-534z" />
<glyph unicode="&#xff;" horiz-adv-x="1024" d="M21 996h237l245 -791l256 791h240l-350 -996l-163 -448h-228l165 448h-68zM182 1287q0 60 33 92t95 32q61 0 94.5 -32t33.5 -92t-33.5 -92.5t-94.5 -32.5t-94.5 32.5t-33.5 92.5zM579 1287q0 60 33.5 92t94.5 32q62 0 95 -32t33 -92q0 -61 -33 -93t-95 -32 q-61 0 -94.5 32.5t-33.5 92.5z" />
<glyph unicode="&#x152;" horiz-adv-x="1659" d="M106 435v484q0 217 136.5 336t348.5 119q141 0 234 -77v57h757v-201h-542v-374h522v-194h-522v-384h563v-201h-778v59q-103 -79 -234 -79q-212 0 -348.5 119t-136.5 336zM336 463q0 -135 65.5 -214t196.5 -79q146 0 215 99v815q-71 99 -215 99q-130 0 -196 -79t-66 -213 v-428z" />
<glyph unicode="&#x153;" horiz-adv-x="1569" d="M105 454v88q0 59 1 89q6 184 128.5 284.5t307.5 100.5q158 0 273 -90q109 90 259 90q175 0 287 -110t112 -304v-76q0 -20 -1 -52t-1 -42h-581v-45q0 -105 61 -160.5t179 -55.5q141 0 304 40l19 -181q-160 -50 -345 -50q-174 0 -288 92q-113 -92 -278 -92 q-185 0 -307.5 100.5t-128.5 284.5q-1 29 -1 89zM327 397q0 -107 55.5 -168.5t159.5 -61.5q107 0 162 67q-30 68 -30 151v215q0 86 29 162q-56 67 -161 67q-104 0 -159.5 -62t-55.5 -168v-202zM890 572h369v39q0 223 -185 223q-184 0 -184 -219v-43z" />
<glyph unicode="&#x178;" horiz-adv-x="1133" d="M37 1354h241l289 -638l288 638h241l-414 -864v-490h-231v490zM239 1645q0 60 33.5 92t94.5 32t94.5 -32t33.5 -92t-33.5 -92t-94.5 -32t-94.5 32t-33.5 92zM638 1645q0 60 33.5 92t94.5 32q62 0 95 -32t33 -92t-33 -92t-95 -32q-61 0 -94.5 32t-33.5 92z" />
<glyph unicode="&#x2c6;" horiz-adv-x="807" d="M88 1126l213 340h205l213 -340l-198 -16l-118 209l-117 -209z" />
<glyph unicode="&#x2dc;" horiz-adv-x="854" d="M88 1229q29 70 86 123.5t134 53.5q44 0 122 -30.5t112 -30.5q59 0 114 69l110 -78q-29 -70 -86.5 -123.5t-133.5 -53.5q-45 0 -122.5 30.5t-111.5 30.5q-59 0 -114 -68z" />
<glyph unicode="&#x2000;" horiz-adv-x="942" />
<glyph unicode="&#x2001;" horiz-adv-x="1885" />
<glyph unicode="&#x2002;" horiz-adv-x="942" />
<glyph unicode="&#x2003;" horiz-adv-x="1885" />
<glyph unicode="&#x2004;" horiz-adv-x="628" />
<glyph unicode="&#x2005;" horiz-adv-x="471" />
<glyph unicode="&#x2006;" horiz-adv-x="314" />
<glyph unicode="&#x2007;" horiz-adv-x="314" />
<glyph unicode="&#x2008;" horiz-adv-x="235" />
<glyph unicode="&#x2009;" horiz-adv-x="377" />
<glyph unicode="&#x200a;" horiz-adv-x="104" />
<glyph unicode="&#x2010;" horiz-adv-x="761" d="M91 408v179h579v-179h-579z" />
<glyph unicode="&#x2011;" horiz-adv-x="761" d="M91 408v179h579v-179h-579z" />
<glyph unicode="&#x2012;" horiz-adv-x="761" d="M91 408v179h579v-179h-579z" />
<glyph unicode="&#x2013;" horiz-adv-x="1111" d="M91 408v179h929v-179h-929z" />
<glyph unicode="&#x2014;" horiz-adv-x="1561" d="M91 408v179h1379v-179h-1379z" />
<glyph unicode="&#x2018;" horiz-adv-x="390" d="M82 946v124q0 231 126 411h151q-30 -69 -51 -169t-21 -201v-165h-205z" />
<glyph unicode="&#x2019;" horiz-adv-x="432" d="M64 918q30 68 51 168t21 201v165h205v-124q0 -234 -125 -410h-152z" />
<glyph unicode="&#x201a;" horiz-adv-x="405" d="M24 -324q30 68 51.5 168t21.5 201v165h204v-124q0 -234 -125 -410h-152z" />
<glyph unicode="&#x201c;" horiz-adv-x="750" d="M82 946v124q0 231 126 411h151q-30 -69 -51 -169t-21 -201v-165h-205zM443 946v124q0 233 125 411h152q-30 -69 -51.5 -169t-21.5 -201v-165h-204z" />
<glyph unicode="&#x201d;" horiz-adv-x="792" d="M64 918q30 68 51 168t21 201v165h205v-124q0 -234 -125 -410h-152zM424 918q30 68 51.5 168t21.5 201v165h204v-124q0 -234 -125 -410h-152z" />
<glyph unicode="&#x201e;" horiz-adv-x="766" d="M24 -324q30 68 51.5 168t21.5 201v165h204v-124q0 -234 -125 -410h-152zM384 -324q31 67 52 167t21 202v165h205v-124q0 -232 -126 -410h-152z" />
<glyph unicode="&#x2022;" horiz-adv-x="646" d="M88 676q0 111 61.5 170t174.5 59q112 0 173 -59t61 -170t-61 -170t-173 -59q-113 0 -174.5 59t-61.5 170z" />
<glyph unicode="&#x2026;" horiz-adv-x="1296" d="M91 104q0 61 33 93t95 32q61 0 94.5 -32.5t33.5 -92.5t-33.5 -92t-94.5 -32t-94.5 32t-33.5 92zM520 104q0 60 33.5 92.5t94.5 32.5t94.5 -32.5t33.5 -92.5t-33.5 -92t-94.5 -32t-94.5 32t-33.5 92zM949 104q0 60 33.5 92.5t94.5 32.5q62 0 95 -32t33 -93q0 -60 -33 -92 t-95 -32q-61 0 -94.5 32t-33.5 92z" />
<glyph unicode="&#x202f;" horiz-adv-x="377" />
<glyph unicode="&#x2039;" horiz-adv-x="580" d="M93 498l254 446l174 -77l-199 -369l199 -369l-174 -77z" />
<glyph unicode="&#x203a;" horiz-adv-x="580" d="M58 129l200 369l-200 369l174 77l255 -446l-255 -446z" />
<glyph unicode="&#x205f;" horiz-adv-x="471" />
<glyph unicode="&#x20ac;" horiz-adv-x="1258" d="M133 472v148h770v-148h-393v-29q0 -123 84.5 -191.5t223.5 -68.5q148 0 280 44l22 -190q-144 -57 -336 -57q-98 0 -188.5 30t-160.5 85t-112 140.5t-42 188.5v48h-148zM133 732v148h148v30q0 114 41.5 204t113 146t161 85t189.5 29q96 0 182.5 -19t129.5 -37l-28 -197 q-154 50 -269 50q-134 0 -212.5 -77t-78.5 -214h393v-148h-770z" />
<glyph unicode="&#x2122;" horiz-adv-x="1112" d="M24 1223v131h441v-131h-147v-406h-147v406h-147zM516 817v537h160l124 -297l127 297h161v-537h-139v321l-102 -254h-92l-100 251v-318h-139z" />
<glyph unicode="&#x25fc;" horiz-adv-x="995" d="M0 0v995h995v-995h-995z" />
<glyph unicode="&#xfb02;" horiz-adv-x="1141" d="M27 819v177h144v90q0 145 79.5 241t232.5 123q76 13 164 8q73 1 149.5 -9.5t131.5 -23t62 -13.5v-1412h-225v1255q-96 18 -163 18q-103 0 -156.5 -47t-53.5 -151v-79h217v-177h-214v-819h-224v819h-144z" />
<glyph unicode="&#xfb04;" horiz-adv-x="1716" d="M27 819v177h144v132q0 143 87.5 229.5t237.5 86.5q92 0 176 -21l-26 -180q-78 12 -112 12q-74 0 -108 -34.5t-34 -112.5v-112h353v90q0 145 80 241t233 123q76 13 164 8q73 1 149 -9.5t131 -23t63 -13.5v-1412h-225v1255q-96 18 -163 18q-103 0 -156.5 -47t-53.5 -151 v-79h217v-177h-214v-819h-225v819h-350v-819h-224v819h-144z" />
</font>
</defs>
</svg>
